<?xml version="1.0" standalone="no"?>
<!DOCTYPE svg PUBLIC "-//W3C//DTD SVG 1.1//EN" "http://www.w3.org/Graphics/SVG/1.1/DTD/svg11.dtd" >
<!--
2013-9-30: Created.
-->
<svg>
<metadata>
Created by iconfont
</metadata>
<defs>

<font id="banzhuan_font" horiz-adv-x="1024" >
  <font-face
    font-family="banzhuan_font"
    font-weight="500"
    font-stretch="normal"
    units-per-em="1024"
    ascent="896"
    descent="-128"
  />
    <missing-glyph />
    
    <glyph glyph-name="QQ" unicode="&#58884;" d="M273.5104 331.82592 272.31232 335.55328 271.33952 340.3968 270.6944 343.04896 270.6944 346.3872 270.6944 350.37056 270.6944 353.97504 271.85152 358.27584 273.02912 362.8224 274.5856 367.59424 276.6848 372.9088 279.43936 378.42816 283.33056 383.95776 283.33056 387.82848 283.70944 391.45344 284.3136 396.37888 285.98272 401.91872 287.51872 407.89888 288.74752 410.6432 290.16064 413.2032 291.98336 416.04992 293.96992 418.1696 293.96992 422.0608 293.96992 426.43328 293.96992 431.84 295.1168 438.88512 296.27392 447.06688 298.33216 456.85632 301.16864 467.04512 303.27808 472.6464 305.36704 478.7392 307.6608 484.4224 310.40512 490.5152 313.20064 497.18144 316.416 503.42784 320.03072 510.09408 324.58752 516.75008 326.69696 520.5696 328.93952 523.6928 333.824 530.73792 338.85184 537.76256 344.55552 544.992 350.6688 552.02688 357.30432 558.95936 364.22656 566.0864 372.60288 573.77664 377.91744 578.45632 384.39936 583.50464 390.97344 587.95904 398.08 592.23936 404.91008 596.04864 412.61056 599.20256 420.79232 603.08352 428.92288 605.74592 437.03296 608.51072 445.7984 611.25504 454.5536 613.344 463.75936 615.0848 473.09824 616.59008 482.31424 617.81888 491.52 619.0784 501.34016 619.61088 510.67904 619.61088 520.33536 619.61088 530.35008 619.61088 540.01664 618.39232 549.7344 617.2352 559.63648 616.20096 568.832 613.98912 578.53952 611.92064 587.65312 609.54496 597.63712 606.8928 606.7712 603.65696 615.51616 599.96032 624.85504 596.04864 633.37472 591.77856 641.65888 587.0272 649.7792 581.79456 656.77312 576.93056 660.0192 574.18624 663.41888 572.1792 669.91104 566.67008 675.3792 561.34528 680.83712 555.83616 686.15168 549.7536 690.5344 543.85536 695.7568 537.76256 699.392 531.2192 703.0784 525.40288 706.99008 518.63424 710.23616 512.74624 715.69408 500.28416 718.37696 493.8432 720.47616 487.87328 722.57536 481.39136 724.45952 475.29856 725.77024 470.05568 727.47008 463.8912 730.44992 452.8832 732.35456 443.24736 733.5936 433.92896 734.65856 426.43328 736.33792 415.01568 736.7168 413.2032 738.05824 411.14496 741.67296 405.23648 743.99744 401.23264 746.05568 397.06496 748.67712 392.60032 750.99136 387.2448 752.49664 381.7664 754.13504 375.75552 755.37408 369.59104 755.93728 366.56 756.45952 362.8224 756.45952 359.57632 755.93728 356.36096 755.93728 352.35712 754.9952 348.47616 753.27488 340.96 751.29856 337.16096 749.83424 332.89088 749.83424 331.82592 750.53056 330.50496 752.49664 327.38176 761.05728 314.71488 767.81568 305.20192 771.05152 298.85312 775.41376 291.90016 779.2128 284.2816 783.59552 276.1408 787.97824 266.98624 792.91392 256.62336 795.6992 250.27456 798.23872 244.06912 800.43008 237.52576 802.59072 231.63776 804.23936 225.4528 805.91872 219.64672 808.0384 208.32128 809.71776 196.75008 810.87488 186.4896 810.87488 180.88832 810.87488 176.28032 810.87488 172.01024 810.09664 166.88 808.99072 158.0224 807.4752 150.06592 805.12 142.84672 804.23936 139.90784 802.59072 136.3648 801.21856 133.89696 799.37536 130.85568 797.75744 128.9408 795.6992 126.46272 793.856 124.46592 791.88992 122.75584 789.53472 121.7216 787.41504 120.68736 785.67424 120.11392 784.15872 120.11392 783.01184 120.11392 781.312 120.68736 778.07616 122.2848 776.59136 123.34976 775.03488 124.46592 773.33504 125.99168 771.61472 127.70176 768.77824 130.85568 765.41952 135.31008 762.7776 139.90784 760.13568 143.584 757.5552 147.86432 753.92 155.4624 749.83424 163.36768 749.35296 163.64416 748.67712 163.64416 747.01824 162.40512 746.05568 160.3264 744.45824 157.74592 741.67296 150.06592 737.47456 139.13984 732.09856 125.99168 728.05376 119.43808 723.8144 112.59776 718.77632 104.90752 713.43104 97.38112 710.69696 93.9712 707.3792 90.25408 699.7504 82.7584 700.416 82.08256 701.45024 81.00736 705.25952 78.77504 721.13152 71.14624 728.05376 67.2448 734.65856 63.456 741.19168 58.68416 747.01824 53.76896 749.83424 51.54688 751.95392 48.98688 754.13504 46.01728 755.93728 42.80192 756.91008 40.12928 758.09792 36.92416 758.60992 34.14912 759.17312 30.91328 758.60992 28.7424 758.60992 26.5408 758.09792 24.26752 756.91008 22.1888 756.45952 20.56064 755.37408 18.58432 752.49664 14.6624 749.83424 11.51872 747.776 9.16352 746.05568 7.42272 741.67296 4.22784 736.7168 1.44256 731.43296-1.21984 725.77024-3.77984 719.45216-6.25792 716.05248-7.29216 713.07264-8.13184 705.73056-9.84192 698.15296-11.47008 690.5344-13.088 682.25024-14.43968 673.71008-14.79808 664.95488-15.8528 656.29184-15.8528 647.17824-15.8528 637.77792-15.8528 627.97824-15.27936 618.8544-14.43968 609.01376-13.088 599.25504-12.04352 588.97408-10.60992 579.01056-8.13184 569.2928-6.25792 559.63648-3.49312 549.7344 0.04992 540.01664 2.97856 534.89664 4.68864 530.35008 6.30656 527.47264 7.42272 524.61568 8.02688 520.93952 8.02688 516.53632 8.02688 507.19744 8.68224 502.4768 9.16352 496.39424 9.83936 492.4928 6.30656 487.168 2.97856 479.9488-0.53376 471.9616-4.91648 467.10784-7.29216 462.03904-9.17632 450.84672-13.7536 444.76416-15.27936 438.38464-16.99968 429.53728-18.72 423.99744-19.15008 418.14016-19.65184 412.02688-20.32768 404.91008-20.59392 398.08-20.59392 390.97344-20.59392 375.83872-20.59392 359.424-20.32768 343.48032-18.72 335.4112-17.57312 327.61856-16.416 320.03072-15.27936 312.44288-13.7536 305.36704-11.47008 298.33216-9.84192 291.98336-7.29216 285.98272-4.91648 280.38144-2.24384 275.51744 0.67456 270.6944 4.22784 269.04576 5.94816 266.88512 8.02688 265.24672 9.83936 263.77216 11.92832 262.41024 14.00704 261.35552 16.10624 259.82976 20.56064 259.29728 22.86464 258.62144 25.42464 258.62144 27.79008 259.29728 30.46272 259.29728 33.11488 259.82976 35.76704 259.82976 37.38496 259.82976 41.12256 260.08576 43.9488 261.35552 47.18464 262.41024 50.42048 264.32512 54.32192 265.728 55.8272 266.88512 57.568 269.90592 61.26464 272.31232 63.16928 274.5856 64.50048 276.6848 66.19008 280.00256 67.2448 282.66496 68.86272 285.98272 70.5728 289.76128 71.70944 293.56032 72.86656 297.96352 73.82912 302.1312 74.38208 307.07712 75.0272 312.44288 75.4368 313.83552 75.8976 314.14272 75.8976 314.81856 76.47104 314.81856 77.1264 313.83552 78.4576 310.9888 79.80928 303.872 85.97376 299.08992 89.78304 293.56032 94.62656 287.98976 100.04352 282.19392 106.96576 275.51744 114.76864 273.02912 118.98752 269.73184 123.34976 266.88512 128.38784 264.32512 133.89696 260.87424 139.13984 258.62144 145.12 255.93856 151.08992 253.25568 157.74592 251.31008 164.12544 249.45664 172.01024 248.90368 172.29696 248.34048 172.29696 248.05376 172.86016 247.36768 172.86016 246.24128 172.29696 245.67808 172.01024 244.89984 170.68928 244.62336 169.0816 244.03968 167.648 243.02592 165.26208 239.7696 159.46624 238.08 155.95392 235.39712 152.89216 232.5504 149.20576 229.40672 145.12 226.08896 141.49504 222.18752 137.98272 218.58304 134.68544 214.58944 132.064 210.2272 129.32992 206.0288 127.70176 201.08288 126.46272 196.22912 125.99168 195.75808 125.99168 195.08224 125.99168 193.96608 126.46272 193.08544 128.38784 191.66208 129.32992 189.7984 133.89696 188.63104 136.3648 187.38176 139.90784 186.34752 143.584 185.79456 147.20896 184.25856 155.4624 183.67488 160.3264 183.67488 165.26208 183.67488 176.28032 184.25856 188.18944 185.22112 194.272 186.34752 200.53888 187.38176 207.28704 189.21472 213.56416 191.27296 220.7936 193.39264 227.83872 196.22912 235.08864 198.90176 242.00064 202.5984 249.01504 206.0288 256.62336 210.2272 263.76064 215.16288 271.46112 220.18048 278.38336 225.42336 286.08384 229.79584 291.4496 235.39712 297.5936 241.29536 303.7888 244.03968 306.73792 247.36768 310.05568 252.20096 314.24384 257.16736 318.51392 265.24672 325.7536 271.33952 330.208Z"  horiz-adv-x="1024" />

    
    <glyph glyph-name="cascades" unicode="&#59004;" d="M399.5 412.125L230.75 412.125c-46.51875 0-84.375 37.85625-84.375 84.375L146.375 665.25c0 46.51875 37.85625 84.375 84.375 84.375l168.75 0c46.51875 0 84.375-37.85625 84.375-84.375l0-168.75C483.875 449.98125 446.01875 412.125 399.5 412.125zM230.75 693.375C215.253125 693.375 202.625 680.746875 202.625 665.25l0-168.75c0-15.496875 12.628125-28.125 28.125-28.125l168.75 0c15.496875 0 28.125 12.628125 28.125 28.125L427.625 665.25c0 15.496875-12.628125 28.125-28.125 28.125L230.75 693.375zM399.5 18.375L230.75 18.375c-46.51875 0-84.375 37.85625-84.375 84.375l0 168.75c0 46.51875 37.85625 84.375 84.375 84.375l168.75 0c46.51875 0 84.375-37.85625 84.375-84.375l0-168.75C483.875 56.231250000000045 446.01875 18.375 399.5 18.375zM230.75 299.625c-15.496875 0-28.125-12.6-28.125-28.125l0-168.75c0-15.525 12.628125-28.125 28.125-28.125l168.75 0c15.496875 0 28.125 12.6 28.125 28.125l0 168.75c0 15.525-12.628125 28.125-28.125 28.125L230.75 299.625zM793.25 18.375l-168.75 0c-46.51875 0-84.375 37.85625-84.375 84.375l0 56.25c0 46.51875 37.85625 84.375 84.375 84.375l168.75 0c46.51875 0 84.375-37.85625 84.375-84.375l0-56.25C877.625 56.231250000000045 839.76875 18.375 793.25 18.375zM624.5 187.125c-15.525 0-28.125-12.6-28.125-28.125l0-56.25c0-15.525 12.6-28.125 28.125-28.125l168.75 0c15.525 0 28.125 12.6 28.125 28.125l0 56.25c0 15.525-12.6 28.125-28.125 28.125L624.5 187.125zM793.25 299.625l-168.75 0c-46.51875 0-84.375 37.85625-84.375 84.375L540.125 665.25c0 46.51875 37.85625 84.375 84.375 84.375l168.75 0c46.51875 0 84.375-37.85625 84.375-84.375l0-281.25C877.625 337.48125000000005 839.76875 299.625 793.25 299.625zM624.5 693.375c-15.525 0-28.125-12.628125-28.125-28.125l0-281.25c0-15.496875 12.6-28.125 28.125-28.125l168.75 0c15.525 0 28.125 12.628125 28.125 28.125L821.375 665.25c0 15.496875-12.6 28.125-28.125 28.125L624.5 693.375z"  horiz-adv-x="1024" />

    
    <glyph glyph-name="list" unicode="&#59010;" d="M849.5 609l-253.125 0c-15.553125 0-28.125 12.6-28.125 28.125s12.571875 28.125 28.125 28.125l253.125 0c15.553125 0 28.125-12.6 28.125-28.125S865.053125 609 849.5 609zM849.5 468.375l-253.125 0c-15.553125 0-28.125 12.6-28.125 28.125s12.571875 28.125 28.125 28.125l253.125 0c15.553125 0 28.125-12.6 28.125-28.125S865.053125 468.375 849.5 468.375zM849.5 243.375l-253.125 0c-15.553125 0-28.125 12.571875-28.125 28.125s12.571875 28.125 28.125 28.125l253.125 0c15.553125 0 28.125-12.571875 28.125-28.125S865.053125 243.375 849.5 243.375zM849.5 102.75l-253.125 0c-15.553125 0-28.125 12.571875-28.125 28.125s12.571875 28.125 28.125 28.125l253.125 0c15.553125 0 28.125-12.571875 28.125-28.125S865.053125 102.75 849.5 102.75zM399.5 412.125L230.75 412.125c-46.51875 0-84.375 37.85625-84.375 84.375L146.375 665.25c0 46.51875 37.85625 84.375 84.375 84.375l168.75 0c46.51875 0 84.375-37.85625 84.375-84.375l0-168.75C483.875 449.98125 446.01875 412.125 399.5 412.125zM230.75 693.375C215.253125 693.375 202.625 680.746875 202.625 665.25l0-168.75c0-15.496875 12.628125-28.125 28.125-28.125l168.75 0c15.496875 0 28.125 12.628125 28.125 28.125L427.625 665.25c0 15.496875-12.628125 28.125-28.125 28.125L230.75 693.375zM399.5 18.375L230.75 18.375c-46.51875 0-84.375 37.85625-84.375 84.375l0 168.75c0 46.51875 37.85625 84.375 84.375 84.375l168.75 0c46.51875 0 84.375-37.85625 84.375-84.375l0-168.75C483.875 56.231250000000045 446.01875 18.375 399.5 18.375zM230.75 299.625c-15.496875 0-28.125-12.6-28.125-28.125l0-168.75c0-15.525 12.628125-28.125 28.125-28.125l168.75 0c15.496875 0 28.125 12.6 28.125 28.125l0 168.75c0 15.525-12.628125 28.125-28.125 28.125L230.75 299.625z"  horiz-adv-x="1024" />

    
    <glyph glyph-name="pic" unicode="&#59035;" d="M343.25 496.5m-56.25 0a1.7578125 1.7578125 0 1 1 112.5 0 1.7578125 1.7578125 0 1 1-112.5 0ZM802.64375 46.5L221.35625 46.5C164.515625 46.5 118.25 92.765625 118.25 149.60625000000005L118.25 618.39375C118.25 675.234375 164.515625 721.5 221.35625 721.5l581.2875 0C859.484375 721.5 905.75 675.234375 905.75 618.39375l0-468.7875C905.75 92.765625 859.484375 46.5 802.64375 46.5zM221.35625 665.25C195.5375 665.25 174.5 644.2125 174.5 618.39375l0-468.7875C174.5 123.75937499999998 195.5375 102.75 221.35625 102.75l581.2875 0C828.490625 102.75 849.5 123.75937499999998 849.5 149.60625000000005L849.5 618.39375C849.5 644.2125 828.490625 665.25 802.64375 665.25L221.35625 665.25zM258.875 158.12812499999995c-2.75625 0-5.56875 0.421875-8.353125 1.29375-14.821875 4.6125-23.11875 20.334375-18.50625 35.15625 2.08125 6.69375 52.875 164.221875 160.9875 161.409375 30.76875-0.759375 56.53125-8.521875 81.45-16.03125 32.00625-9.61875 59.68125-17.915625 96.35625-12.065625 17.971875 2.896875 25.396875 20.953125 38.08125 61.509375 16.734375 53.465625 42.01875 134.240625 153.50625 134.240625 15.553125 0 28.125-12.6 28.125-28.125s-12.571875-28.125-28.125-28.125c-66.76875 0-81.45-36.028125-99.84375-94.809375-12.740625-40.78125-28.659375-91.546875-82.85625-100.209375-49.471875-7.875-87.69375 3.628125-121.471875 13.725-22.33125 6.721875-43.453125 13.078125-66.684375 13.640625-0.421875 0.028125-0.84375 0.028125-1.265625 0.028125-54.50625 0-93.9375-87.778125-104.596875-121.865625C281.965625 165.86249999999995 270.85625 158.12812499999995 258.875 158.12812499999995z"  horiz-adv-x="1024" />

    
    <glyph glyph-name="pmlight" unicode="&#59068;" d="M632 474l-240 0c-16.56 0-30 13.44-30 30s13.44 30 30 30l240 0c16.59 0 30-13.44 30-30S648.59 474 632 474zM575.06 354L392 354c-16.56 0-30 13.44-30 30s13.44 30 30 30l183.06 0c16.59 0 30-13.44 30-30S591.62 354 575.06 354zM934.1 444c0 198.51-188.4 360-420 360s-420-161.49-420-360c0-109.23 59.1-211.92 162.12-281.88 13.71-9.36 32.37-5.76 41.67 7.98 9.3 13.71 5.73 32.37-7.98 41.67C203.6 270.36 154.1 354.99 154.1 444c0 165.42 161.49 300 360 300 198.51 0 360-134.58 360-300 0-165.42-161.49-300-360-300-1.86 0-3.45-0.72-5.22-1.05-14.19 2.55-28.56-4.89-33.54-18.93-5.76-16.29-43.47-43.74-88.26-69.18 16.35 54.57 8.52 66.27 3.27 74.04-6.3 9.36-16.8 14.94-28.05 14.94-16.56 0-30-13.41-30-30 0-5.46 1.44-10.56 3.99-14.97-3.03-17.07-16.14-57.03-30.99-93.6-4.62-11.34-1.86-24.36 6.93-32.88 5.7-5.52 13.23-8.43 20.88-8.43 4.11 0 8.25 0.84 12.18 2.58 34.2 15.24 138.42 64.8 175.89 117.78C749.51 87.60000000000002 934.1 247.52999999999997 934.1 444z"  horiz-adv-x="1024" />

    
    <glyph glyph-name="right" unicode="&#59006;" d="M107.989567 281.934709c0 0 145.950931-134.73905 252.219214-291.304222 216.422246 360.877031 549.425126 558.767337 549.425126 558.767337s27.354287 85.79299-30.638234 56.645785c0 0-236.299899-99.316631-538.515135-368.872506-103.129652 99.467064-162.839363 124.280359-162.839363 124.280359C102.981266 397.545203 107.989567 281.934709 107.989567 281.934709z"  horiz-adv-x="1024" />

    
    <glyph glyph-name="system" unicode="&#59164;" d="M863.68 639.6800000000001c-8.736 0-17.44 3.552-23.744 10.56-11.84 13.12-10.816 33.344 2.304 45.216l32.512 29.312c13.088 11.84 33.312 10.816 45.184-2.336 11.84-13.12 10.816-33.344-2.304-45.216L885.12 647.936C879.008 642.4 871.328 639.6800000000001 863.68 639.6800000000001zM160.352 639.6800000000001c-7.648 0-15.296 2.72-21.408 8.224L106.432 677.248c-13.12 11.84-14.144 32.064-2.336 45.216s32.032 14.176 45.216 2.336l32.512-29.312c13.12-11.84 14.144-32.064 2.336-45.216C177.824 643.264 169.12 639.6800000000001 160.352 639.6800000000001zM512 768c-17.664 0-32 14.336-32 32L480 832c0 17.664 14.336 32 32 32s32-14.336 32-32l0-32C544 782.336 529.664 768 512 768zM512 746.304c-176.448 0-320-143.552-320-320 0-111.04 68.64-187.136 71.52-190.304C293.6 203.20000000000005 320 135.36 320 90.88l0-55.68c0-70.592 57.408-128 128-128l128 0c70.592 0 128 57.408 128 128l0 55.68c0 44.544 26.368 112.352 56.48 145.12 2.912 3.2 71.52 79.296 71.52 190.304C832 602.752 688.448 746.304 512 746.304zM576 32l-128 0c-17.664 0-32 14.304-32 32s14.336 32 32 32l128 0c17.696 0 32-14.304 32-32S593.696 32 576 32zM650.112 321.664C646.752 320.544 643.328 320 640 320c-13.408 0-25.888 8.48-30.336 21.888l-15.648 46.88-59.36-59.392c-12.512-12.512-32.736-12.512-45.248 0l-59.392 59.392-15.616-46.88c-5.6-16.736-23.68-25.888-40.48-20.224-16.768 5.568-25.824 23.68-20.224 40.48l32 96c3.52 10.528 12.224 18.464 23.008 21.024 10.752 2.56 22.144-0.672 29.984-8.512L512 397.248l73.376 73.376c7.808 7.84 19.168 11.04 29.984 8.512 10.816-2.56 19.488-10.496 23.008-21.024l32-96C675.936 345.34400000000005 666.88 327.23199999999997 650.112 321.664z"  horiz-adv-x="1024" />

    
    <glyph glyph-name="systemlight" unicode="&#59167;" d="M576-92.79999999999995l-128 0c-70.592 0-128 57.408-128 128l0 55.68c0 44.512-26.4 112.32-56.48 145.12C260.64 239.20000000000005 192 315.29600000000005 192 426.304c0 176.448 143.552 320 320 320 176.448 0 320-143.552 320-320 0-111.04-68.64-187.136-71.52-190.304C730.368 203.23199999999997 704 135.39200000000005 704 90.88l0-55.68C704-35.39200000000005 646.592-92.79999999999995 576-92.79999999999995zM512 682.304c-141.152 0-256-114.848-256-256 0-86.4 54.144-146.464 54.72-147.072 41.088-44.8 73.28-127.552 73.28-188.384l0-55.68c0-35.296 28.704-64 64-64l128 0c35.296 0 64 28.704 64 64l0 55.68c0 60.832 32.192 143.552 73.28 188.384 0.48 0.544 54.72 61.6 54.72 147.072C768 567.456 653.152 682.304 512 682.304zM640 320c-13.408 0-25.888 8.48-30.336 21.888l-15.648 46.88-59.36-59.392c-12.512-12.512-32.736-12.512-45.248 0l-59.392 59.392-15.616-46.88c-5.6-16.736-23.68-25.888-40.48-20.224-16.768 5.568-25.824 23.68-20.224 40.48l32 96c3.52 10.528 12.224 18.464 23.008 21.024 10.752 2.56 22.144-0.672 29.984-8.512L512 397.248l73.376 73.376c7.808 7.84 19.168 11.04 29.984 8.512 10.816-2.56 19.488-10.496 23.008-21.024l32-96c5.6-16.768-3.456-34.912-20.224-40.48C646.752 320.544 643.328 320 640 320zM863.68 639.6800000000001c-8.736 0-17.44 3.552-23.744 10.56-11.84 13.12-10.816 33.344 2.304 45.216l32.512 29.312c13.088 11.84 33.312 10.816 45.184-2.336 11.84-13.12 10.816-33.344-2.304-45.216L885.12 647.936C879.008 642.4 871.328 639.6800000000001 863.68 639.6800000000001zM160.352 639.6800000000001c-7.648 0-15.296 2.72-21.408 8.224L106.432 677.248c-13.12 11.84-14.144 32.064-2.336 45.216s32.032 14.176 45.216 2.336l32.512-29.312c13.12-11.84 14.144-32.064 2.336-45.216C177.824 643.264 169.12 639.6800000000001 160.352 639.6800000000001zM512 768c-17.664 0-32 14.336-32 32L480 832c0 17.664 14.336 32 32 32s32-14.336 32-32l0-32C544 782.336 529.664 768 512 768zM576 32l-128 0c-17.664 0-32 14.304-32 32s14.336 32 32 32l128 0c17.696 0 32-14.304 32-32S593.696 32 576 32z"  horiz-adv-x="1024" />

    
    <glyph glyph-name="mypost" unicode="&#59172;" d="M387.2 113.75999999999999M286.112 154.88M512 832.32c-247.04 0-448-172.256-448-384 0-116.48 63.008-226.048 170.592-298.944l87.328-71.52c-3.904-19.328-17.408-60.096-32.64-97.536-4.928-12.096-1.984-25.984 7.36-35.072 6.112-5.888 14.112-8.992 22.272-8.992 4.384 0 8.8 0.896 12.992 2.752 36.416 16.224 147.488 68.96 187.616 125.376C763.136 67.84000000000003 960 238.75199999999995 960 448.32 960 660.032 759.04 832.32 512 832.32zM731.136 489.44l-128.8-188.864c-5.984-8.736-15.872-13.984-26.432-13.984-0.128 0-0.288 0-0.448 0-10.72 0.16-20.672 5.664-26.464 14.688l-91.584 142.208L385.824 304c-5.664-11.072-16.864-17.408-28.512-17.408-4.896 0-9.92 1.12-14.592 3.52-15.712 8.064-21.92 27.328-13.856 43.072l96.896 188.896c5.216 10.176 15.456 16.8 26.912 17.344 11.52 0.416 22.272-5.024 28.48-14.656l95.456-148.288 101.632 148.992c9.984 14.592 29.856 18.336 44.48 8.416C737.312 523.9680000000001 741.088 504.032 731.136 489.44z"  horiz-adv-x="1024" />

    
    <glyph glyph-name="mypostlight" unicode="&#59175;" d="M963.072 449.664c0 211.744-200.96 384-448 384s-448-172.256-448-384c0-116.48 63.008-226.048 172.896-300.672 14.656-9.984 34.528-6.144 44.448 8.512 9.952 14.624 6.112 34.528-8.512 44.448-92.032 62.496-144.832 152.768-144.832 247.712 0 176.448 172.256 320 384 320 211.744 0 384-143.552 384-320 0-176.448-172.256-320-384-320-1.984 0-3.68-0.768-5.568-1.12-15.104 2.688-30.464-5.216-35.776-20.192-6.144-17.376-46.368-46.656-94.144-73.792 17.472 58.208 9.088 70.688 3.52 78.976-6.72 9.984-17.92 15.936-29.92 15.936-17.664 0-32-14.304-32-32 0-5.824 1.536-11.264 4.256-15.936-3.232-18.24-17.216-60.864-33.088-99.872-4.928-12.096-1.984-25.984 7.36-35.072 6.112-5.888 14.112-8.992 22.272-8.992 4.384 0 8.8 0.896 12.992 2.752 36.48 16.256 147.68 69.12 187.616 125.664C766.144 69.50400000000002 963.072 240.096 963.072 449.664zM342.624 291.456c4.672-2.4 9.664-3.52 14.592-3.52 11.616 0 22.816 6.336 28.512 17.408l71.584 139.488 91.584-142.208c5.824-9.024 15.744-14.528 26.464-14.688 0.16 0 0.32 0 0.448 0 10.56 0 20.48 5.216 26.432 13.984l128.8 188.864c9.984 14.624 6.176 34.528-8.416 44.48-14.624 9.952-34.528 6.208-44.48-8.416l-101.632-148.992-95.456 148.288c-6.176 9.6-17.152 14.752-28.48 14.656-11.424-0.576-21.696-7.2-26.912-17.344l-96.896-188.896C320.672 318.81600000000003 326.88 299.52 342.624 291.456z"  horiz-adv-x="1024" />

    
    <glyph glyph-name="picfill" unicode="&#59180;" d="M802.64375 721.5L221.35625 721.5C164.515625 721.5 118.25 675.234375 118.25 618.39375l0-468.7875C118.25 92.765625 164.515625 46.5 221.35625 46.5l581.2875 0C859.484375 46.5 905.75 92.765625 905.75 149.60625000000005L905.75 618.39375C905.75 675.234375 859.484375 721.5 802.64375 721.5zM315.125 580.875c31.078125 0 56.25-25.171875 56.25-56.25s-25.171875-56.25-56.25-56.25c-31.05 0-56.25 25.171875-56.25 56.25S284.075 580.875 315.125 580.875zM793.25 187.125c0-15.553125-12.571875-27.675-28.125-27.675L260.5625 159c-0.1125 0-0.196875 0-0.309375 0-8.859375 0-17.240625 3.76875-22.55625 10.884375-5.371875 7.2-6.975 16.3125-4.303125 24.91875 2.025 6.58125 51.215625 161.325 158.259375 161.325 33.46875-0.7875 59.259375-8.634375 84.178125-16.115625 31.3875-9.421875 61.9875-17.521875 96.384375-12.09375 17.971875 2.896875 25.396875 20.925 38.08125 61.48125 16.734375 53.4375 42.01875 134.240625 153.50625 134.240625 15.4125 0 27.928125-12.375 28.125-27.7875L793.25 384.3375 793.25 187.125z"  horiz-adv-x="1024" />

    
    <glyph glyph-name="shoujitianchong" unicode="&#59065;" d="M715.85 781.321875L293.046875 781.321875c-39.740625 0-71.971875-32.23125001-71.971875-71.971875l0-652.21875001c0-39.740625 32.23125001-71.971875 71.971875-71.97187499l177.69375 0 98.80312499 0 146.30625001 0c39.740625 0 71.971875 32.23125001 71.971875 71.97187499l0 652.21875001C787.821875 749.090625 755.590625 781.321875 715.85 781.321875zM434.796875 730.021875l139.303125 0c6.91875001 0 12.571875-5.653125 12.571875-12.571875s-5.653125-12.571875-12.571875-12.571875L434.796875 704.878125c-6.91875001 0-12.571875 5.653125-12.571875 12.571875S427.878125 730.021875 434.796875 730.021875zM504.490625 68.69062499999995c-28.0125 0-50.709375 22.696875-50.70937501 50.709375 0 28.0125 22.696875 50.709375 50.70937501 50.709375 28.0125 0 50.709375-22.696875 50.709375-50.709375C555.115625 91.38750000000005 532.41875001 68.69062499999995 504.490625 68.69062499999995zM735.171875 256.25624999c0-9.95625001-8.015625-17.971875-17.971875-17.97187499L291.696875 238.28437499999995c-9.95625001 0-17.971875 8.015625-17.971875 17.97187501l0 383.06249998c0 9.95625001 8.015625 17.971875 17.971875 17.97187501l425.41875 0c9.95625001 0 17.971875-8.015625 17.971875-17.97187499L735.0875 256.25624999z"  horiz-adv-x="1024" />

    
    <glyph glyph-name="pm" unicode="&#59257;" d="M512 801.03c-231.6 0-420-161.49-420-360 0-109.23 59.1-211.92 163.17-282.57l78.9-48.78c-3.45-22.08-17.58-69.84-31.35-108.69-3.99-11.31-0.87-23.91 7.92-32.04 5.64-5.22 12.96-7.98 20.37-7.98 4.14 0 8.28 0.84 12.21 2.58 34.14 15.21 138.24 64.65 175.86 117.54C747.44 84.36000000000001 932 244.59000000000003 932 441.03 932 639.54 743.6 801.03 512 801.03zM575.96 354.03L392.9 354.03c-16.56 0-30 13.44-30 30s13.44 30 30 30l183.06 0c16.59 0 30-13.44 30-30S592.55 354.03 575.96 354.03zM632.87 474.03L392.9 474.03c-16.56 0-30 13.44-30 30s13.44 30 30 30l239.97 0c16.59 0 30-13.44 30-30S649.46 474.03 632.87 474.03z"  horiz-adv-x="1024" />

    
    <glyph glyph-name="app" unicode="&#59170;" d="M512 830.016611c-245.919634 0-446.016611-200.095256-446.016611-446.016611 0-245.952318 200.064292-446.016611 446.016611-446.016611S958.016611 138.047682 958.016611 384C958.016611 629.919634 757.952318 830.016611 512 830.016611zM512 223.99914c-88.223841 0-160.00086 71.775299-160.00086 160.00086s71.775299 159.99914 160.00086 159.99914 160.00086-71.775299 160.00086-159.99914S600.223841 223.99914 512 223.99914z"  horiz-adv-x="1024" />

    
    <glyph glyph-name="applight" unicode="&#59171;" d="M512 830.016611c-245.919634 0-446.016611-200.095256-446.016611-446.016611 0-245.952318 200.064292-446.016611 446.016611-446.016611S958.016611 138.047682 958.016611 384C958.016611 629.919634 757.952318 830.016611 512 830.016611zM512 1.9833889999999883c-210.655557 0-382.016611 171.392017-382.016611 382.016611 0 210.655557 171.359333 382.016611 382.016611 382.016611 210.624593 0 382.016611-171.359333 382.016611-382.016611C894.016611 173.375407 722.624593 1.9833889999999883 512 1.9833889999999883zM512 543.99914c-88.223841 0-160.00086-71.775299-160.00086-159.99914s71.775299-160.00086 160.00086-160.00086 160.00086 71.775299 160.00086 160.00086S600.223841 543.99914 512 543.99914z"  horiz-adv-x="1024" />

    
    <glyph glyph-name="wenhaofill" unicode="&#59181;" d="M512 804c-231.59951625 0-420-188.40048375-420-420S280.40048375-36 512-36 932 152.40048375000003 932 384 743.59951625 804 512 804zM512 83.66939906000005c-24.84021 0-45.00040312 20.16019312-45.00040312 45.00040313 0 24.84021 20.16019312 45.00040312 45.00040312 45.00040312s45.00040312-20.16019312 45.00040312-45.00040312S536.84021 83.66939906000005 512 83.66939906000005zM595.04045188 390.38946375c-26.09971781-26.07068906-53.03964563-53.01061687-53.03964563-77.22026625l0-50.73027844c0-16.56067688-13.44012937-30.00080625-30.00080625-30.00080625s-30.00080625 13.44012937-30.00080625 30.00080625l0 50.73027844c0 49.08049969 37.49979844 86.58029812 70.61954062 119.66939906 24.26931844 24.26931844 49.38045938 49.34981812 49.38045938 69.36003188 0 50.0094075-40.38005625 90.68942344-89.99919375 90.68942343-50.45934656 0-89.99919375-38.93992781-89.99919375-88.64937468 0-16.56067688-13.44012937-29.99919375-30.00080625-29.99919375s-30.00080625 13.44012937-30.00080625 29.99919375c0 81.95995125 67.28934281 148.64937469 150.00080625 148.64937468s150.00080625-67.5893025 150.00080625-150.68942343C662.00080625 457.32079031 627.95054469 423.29955656 595.04045188 390.38946375z"  horiz-adv-x="1024" />

    
    <glyph glyph-name="wenhao" unicode="&#59186;" d="M466.99959688 128.66980219000004c0-24.85311094 20.14729219-45.00040312 45.00040312-45.00040313s45.00040312 20.14729219 45.00040312 45.00040313c0 24.85311094-20.14729219 45.00040312-45.00040312 45.00040312S466.99959688 153.52291313 466.99959688 128.66980219000004zM512-36c-231.59951625 0-420 188.40048375-420 420S280.40048375 804 512 804 932 615.5995162500001 932 384 743.59951625-36 512-36zM512 743.73068156c-198.360435 0-359.73068156-161.37024562-359.73068156-359.73068156 0-198.32979469 161.37024562-359.73068156 359.73068156-359.73068156 198.32979469 0 359.73068156 161.39927438 359.73068156 359.73068156C871.73068156 582.360435 710.32979469 743.73068156 512 743.73068156zM512 232.41069749999997c-16.56067688 0-30.00080625 13.44012937-30.00080625 29.99919375l0 50.73027844c0 49.08049969 37.49979844 86.58029812 70.61954062 119.66939906 24.26931844 24.29995969 49.38045938 49.38045938 49.38045938 69.39067312 0 50.0094075-40.38005625 90.68942344-89.99919375 90.68942344-50.45934656 0-89.99919375-38.93992781-89.99919375-88.64937469 0-16.56067688-13.44012937-29.99919375-30.00080625-29.99919375s-30.00080625 13.44012937-30.00080625 29.99919375c0 81.95995125 67.28934281 148.64937469 150.00080625 148.64937469s150.00080625-67.5893025 150.00080625-150.68942344c0-44.91009281-34.0502625-78.92971406-66.96035438-111.83980687-26.09971781-26.04004875-53.03964563-52.97997563-53.03964562-77.189625l0-50.73027844C542.00080625 245.87985469 528.56067688 232.41069749999997 512 232.41069749999997z"  horiz-adv-x="1024" />

    
    <glyph glyph-name="vs2" unicode="&#59206;" d="M480 832C215.04 832 0 616.96 0 352 0 87.04 215.04-128 480-128S960 87.04 960 352C960 616.96 744.96 832 480 832zM448 531.84l-127.36-381.44c-4.48-12.8-16.64-21.76-30.08-21.76s-25.6 8.96-30.08 21.76L133.12 531.84C127.36 548.48 136.32 566.4 152.96 572.16c16.64 5.76 34.56-3.2 40.32-19.84l97.28-291.2 97.28 291.2c5.76 16.64 23.68 25.6 40.32 19.84C444.16 566.4 453.76 548.48 448 531.84zM608.64 383.36C704 383.36 768 332.16 768 256c0-78.08-60.8-127.36-159.36-127.36-92.16 0-159.36 53.76-159.36 127.36 0 17.28 14.08 32 32 32 17.92 0 32-14.08 32-32 0-37.12 39.04-63.36 95.36-63.36 35.84 0 95.36 8.32 95.36 63.36 0 60.8-79.36 63.36-95.36 63.36-95.36 0-159.36 51.2-159.36 127.36 0 78.72 60.8 127.36 159.36 127.36 92.16 0 159.36-53.76 159.36-127.36 0-17.28-14.08-32-32-32S704 428.8 704 446.72c0 37.12-39.04 63.36-95.36 63.36-35.84 0-95.36-8.32-95.36-63.36C513.28 385.92 592.64 383.36 608.64 383.36z"  horiz-adv-x="1024" />

    
    <glyph glyph-name="nav" unicode="&#58882;" d="M1170.285714 749.714286 73.142857 749.714286C32.914286 749.714286 0 782.628571 0 822.857143l0 0c0 40.228571 32.914286 73.142857 73.142857 73.142857l1097.142857 0c40.228571 0 73.142857-32.914286 73.142857-73.142857l0 0C1243.428571 782.628571 1210.514286 749.714286 1170.285714 749.714286zM1170.285714 310.857143 73.142857 310.857143c-40.228571 0-73.142857 32.914286-73.142857 73.142857l0 0c0 40.228571 32.914286 73.142857 73.142857 73.142857l1097.142857 0c40.228571 0 73.142857-32.914286 73.142857-73.142857l0 0C1243.428571 343.771429 1210.514286 310.857143 1170.285714 310.857143zM1170.285714-128 73.142857-128c-40.228571 0-73.142857 32.914286-73.142857 73.142857l0 0c0 40.228571 32.914286 73.142857 73.142857 73.142857l1097.142857 0c40.228571 0 73.142857-32.914286 73.142857-73.142857l0 0C1243.428571-95.085714 1210.514286-128 1170.285714-128z"  horiz-adv-x="1244" />

    
    <glyph glyph-name="paixujiang" unicode="&#59043;" d="M543.107825 640.48606l-421.592885 0c-17.498151 0-31.721795 14.223643-31.721795 31.721795s14.223643 31.721795 31.721795 31.721795l421.592885 0c17.498151 0 31.721795-14.223643 31.721795-31.721795S560.605976 640.48606 543.107825 640.48606zM543.107825 320.505246l-421.592885 0c-17.498151 0-31.721795 14.223643-31.721795 31.721795s14.223643 31.721795 31.721795 31.721795l421.592885 0c17.498151 0 31.721795-14.223643 31.721795-31.721795S560.605976 320.505246 543.107825 320.505246zM543.107825 0.933746l-421.592885 0c-17.498151 0-31.721795 14.223643-31.721795 31.721795s14.223643 31.721795 31.721795 31.721795l421.592885 0c17.498151 0 31.721795-14.223643 31.721795-31.721795S560.605976 0.933746 543.107825 0.933746zM913.331868 210.809234c-12.381733 12.381733-32.438093 12.381733-44.819826 0L767.309284 109.606475 767.309284 672.003198c0 17.498151-14.223643 31.721795-31.721795 31.721795s-31.721795-14.223643-31.721795-31.721795l0-639.552313c0-17.498151 14.223643-31.721795 31.721795-31.721795 7.776956 0 14.837614 2.762866 20.363346 7.367643 0.818627 0.716299 157.381033 157.790347 157.381033 157.790347C925.7136 178.268812 925.7136 198.427501 913.331868 210.809234z"  horiz-adv-x="1024" />

    
    <glyph glyph-name="paixusheng" unicode="&#59044;" d="M543.107825 640.48606l-421.592885 0c-17.498151 0-31.721795 14.223643-31.721795 31.721795s14.223643 31.721795 31.721795 31.721795l421.592885 0c17.498151 0 31.721795-14.223643 31.721795-31.721795S560.605976 640.48606 543.107825 640.48606zM543.107825 320.505246l-421.592885 0c-17.498151 0-31.721795 14.223643-31.721795 31.721795s14.223643 31.721795 31.721795 31.721795l421.592885 0c17.498151 0 31.721795-14.223643 31.721795-31.721795S560.605976 320.505246 543.107825 320.505246zM543.107825 0.933746l-421.592885 0c-17.498151 0-31.721795 14.223643-31.721795 31.721795s14.223643 31.721795 31.721795 31.721795l421.592885 0c17.498151 0 31.721795-14.223643 31.721795-31.721795S560.605976 0.933746 543.107825 0.933746zM913.331868 493.747177c-12.381733-12.381733-32.438093-12.381733-44.819826 0L767.309284 594.847607l0-562.396722c0-17.498151-14.223643-31.721795-31.721795-31.721795s-31.721795 14.223643-31.721795 31.721795l0 639.552313c0 17.498151 14.223643 31.721795 31.721795 31.721795 7.776956 0 14.837614-2.762866 20.363346-7.367643 0.818627-0.716299 157.381033-157.790347 157.381033-157.790347C925.7136 526.18527 925.7136 506.12891 913.331868 493.747177z"  horiz-adv-x="1024" />

    
    <glyph glyph-name="icmessage" unicode="&#58990;" d="M768 640c38.4 0 64-25.6 64-64l0-384c0-38.4-25.6-64-64-64l-128 0L588.8 128l-38.4-38.4L512 51.2l-38.4 38.4L435.2 128 384 128 256 128c-38.4 0-64 25.6-64 64L192 576c0 38.4 25.6 64 64 64L768 640M768 768 256 768C147.2 768 64 684.8 64 576l0-384c0-108.8 83.2-192 192-192l128 0 128-128 128 128 128 0c108.8 0 192 83.2 192 192L960 576C960 684.8 876.8 768 768 768L768 768zM320 384m-64 0a1 1 0 1 0 128 0 1 1 0 1 0-128 0ZM512 384m-64 0a1 1 0 1 0 128 0 1 1 0 1 0-128 0ZM704 384m-64 0a1 1 0 1 0 128 0 1 1 0 1 0-128 0Z"  horiz-adv-x="1024" />

    
    <glyph glyph-name="medalfill" unicode="&#59329;" d="M512 271.5m-112.5 0a112.5 112.5 0 1 1 225 0 112.5 112.5 0 1 1-225 0ZM717.3125 502.125l73.125 126.5625c2.8125 2.8125 5.625 8.4375 5.625 14.0625V777.75c0 8.4375-2.8125 14.0625-8.4375 19.6875-8.4375 8.4375-8.4375 8.4375-554.0625 8.4375-8.4375 0-16.875-2.8125-19.6875-8.4375-5.625-5.625-8.4375-11.25-8.4375-19.6875v-135c0-5.625 0-8.4375 2.8125-14.0625l81.5625-146.25C236.375 429 202.625 353.0625 202.625 271.5c0-171.5625 137.8125-309.375 309.375-309.375s309.375 137.8125 309.375 309.375c0 92.8125-39.375 174.375-104.0625 230.625zM596.375 718.6875c0 16.875 11.25 28.125 28.125 28.125s28.125-11.25 28.125-28.125V552.75c0-16.875-11.25-28.125-28.125-28.125s-28.125 11.25-28.125 28.125V718.6875z m-253.125 0c0 16.875 11.25 28.125 28.125 28.125s28.125-11.25 28.125-28.125v-168.75c0-16.875-11.25-28.125-28.125-28.125s-28.125 11.25-28.125 28.125v168.75zM512 102.75c-92.8125 0-168.75 75.9375-168.75 168.75s75.9375 168.75 168.75 168.75 168.75-75.9375 168.75-168.75-75.9375-168.75-168.75-168.75z"  horiz-adv-x="1024" />

    
    <glyph glyph-name="medal" unicode="&#59330;" d="M720.125 502.125L793.25 628.6875c2.8125 5.625 2.8125 8.4375 2.8125 14.0625V777.75c0 28.125-22.5 28.125-50.625 28.125H233.5625c-5.625 0-14.0625-2.8125-19.6875-8.4375-5.625-5.625-8.4375-11.25-8.4375-19.6875v-135c0-5.625 0-8.4375 2.8125-14.0625l81.5625-146.25c-53.4375-56.25-87.1875-129.375-87.1875-213.75 0-171.5625 137.8125-309.375 309.375-309.375s309.375 137.8125 309.375 309.375c2.8125 92.8125-39.375 177.1875-101.25 233.4375z m19.6875 149.0625l-67.5-115.3125c-5.625 2.8125-14.0625 8.4375-19.6875 11.25V749.625h87.1875v-98.4375z m-225-70.3125c-39.375 0-75.9375-8.4375-112.5-22.5V749.625h196.875v-180c-28.125 5.625-56.25 11.25-84.375 11.25z m-253.125 168.75h84.375v-216.5625c-2.8125-2.8125-8.4375-5.625-11.25-8.4375L261.6875 651.1875V749.625z m253.125-731.25c-140.625 0-253.125 112.5-253.125 253.125s112.5 253.125 253.125 253.125 253.125-112.5 253.125-253.125-115.3125-253.125-253.125-253.125zM514.8125 440.25c-92.8125 0-168.75-75.9375-168.75-168.75s75.9375-168.75 168.75-168.75 168.75 75.9375 168.75 168.75-75.9375 168.75-168.75 168.75z m0-281.25c-61.875 0-112.5 50.625-112.5 112.5s50.625 112.5 112.5 112.5 112.5-50.625 112.5-112.5-50.625-112.5-112.5-112.5z"  horiz-adv-x="1024" />

    
    <glyph glyph-name="videofill" unicode="&#59335;" d="M512 832C265.6 832 64 630.4 64 384s201.6-448 448-448 448 201.6 448 448S758.4 832 512 832zM691.2 352l-256-156.8C428.8 192 422.4 192 416 192c-6.4 0-9.6 0-16 3.2C390.4 201.6 384 211.2 384 224L384 544c0 12.8 6.4 22.4 16 28.8 9.6 6.4 22.4 6.4 32 0l256-166.4c9.6-6.4 16-16 16-28.8C704 368 700.8 355.2 691.2 352z"  horiz-adv-x="1024" />

    
    <glyph glyph-name="video" unicode="&#59336;" d="M416 192c-6.4 0-9.6 0-16 3.2C390.4 201.6 384 211.2 384 224L384 544c0 12.8 6.4 22.4 16 28.8 9.6 6.4 22.4 6.4 32 0l256-166.4c9.6-6.4 16-16 16-28.8 0-9.6-6.4-22.4-16-25.6l-256-156.8C428.8 192 422.4 192 416 192zM448 486.4l0-204.8 163.2 99.2L448 486.4zM512-64C265.6-64 64 137.6 64 384S265.6 832 512 832s448-201.6 448-448S758.4-64 512-64zM512 768C300.8 768 128 595.2 128 384c0-211.2 172.8-384 384-384 211.2 0 384 172.8 384 384C896 595.2 723.2 768 512 768z"  horiz-adv-x="1024" />

    
    <glyph glyph-name="chakan" unicode="&#58906;" d="M928.842245 383.908926c0 5.006014-0.846274 9.193383-1.086751 9.691733-0.182149 2.480494-1.028423 7.001461-1.815345 9.374508-0.210801 0.590448-0.484024 1.209548-0.724501 1.799996-0.424672 1.360997-0.876973 2.691295-1.390673 3.749394-76.871785 168.137395-242.376213 281.144168-411.782507 281.144168-169.375595 0-334.865697-112.902396-411.388535-280.130072-0.921999-1.815345-1.572822-3.553942-1.981121-5.066389-0.181125-0.49835-0.39295-0.967024-0.558725-1.406023-1.512447-4.430916-1.542122-7.514137-1.421372-6.712889-0.710175-3.251044-1.360997-9.722432-1.360997-9.722432-0.181125-1.949398-0.181125-3.50687 0.030699-5.442966 0 0 0.649799-5.65479 0.968048-6.80294 0.090051-1.602498 0.483001-3.931542 0.951675-6.048763l-0.030699 0c0.408299-1.814322 0.968048-3.568269 1.738597-5.291516 0.393973-1.330298 0.862647-2.570545 1.270946-3.507894 76.976162-168.166047 242.436588-281.20352 411.781484-281.20352 169.436994 0 334.941422 112.945375 410.936233 279.328823 1.177825 2.177596 1.935072 4.233418 2.448772 6.018064 0.2415 0.543376 0.454348 1.027399 0.604774 1.511423 1.331321 3.872191 1.602498 7.227612 1.481747 7.227612l-0.028653-0.029676C928.027693 375.078817 928.842245 379.10041 928.842245 383.908926zM872.717993 381.853104c-0.029676-0.121773-0.091074-0.272199-0.151449-0.393973-0.090051-0.36225-0.240477-0.785899-0.332575-1.209548-68.403926-147.420561-212.830293-246.337431-360.191502-246.337431-146.997935 0-291.168476 98.642624-360.252901 246.578931-0.166799 0.5137-0.287549 0.998747-0.468674 1.481747-0.030699 0.484024-0.12075 0.876973-0.150426 1.150196-0.060375 0.300852-0.12075 0.724501-0.166799 1.088798l0 0.3776c0.166799 0.620124 0.286526 1.239224 0.347924 1.919722 0.12075 0.36225 0.211824 0.710175 0.347924 1.103124C220.132094 535.10958 364.680235 634.071476 512.041444 634.071476c147.420561 0 291.940049-99.051947 360.161826-246.322082 0.060375-0.287549 0.121773-0.530073 0.212848-0.726547 0.060375-0.2415 0.119727-0.484024 0.240477-0.740874 0.151449-1.104147 0.272199-2.192945 0.423649-2.736321C872.899118 382.971577 872.809067 382.427178 872.717993 381.853104zM512.041444 522.939399c-76.598562 0-138.954749-62.325487-138.954749-138.939399 0-76.598562 62.356187-138.954749 138.954749-138.954749 76.598562 0 138.954749 62.356187 138.954749 138.954749C650.996193 460.613912 588.640006 522.939399 512.041444 522.939399zM512.041444 300.627151c-45.935192 0-83.371826 37.406958-83.371826 83.371826 0 45.950542 37.436634 83.356476 83.371826 83.356476 45.964868 0 83.373873-37.406958 83.373873-83.356476C595.414293 338.034109 558.006312 300.627151 512.041444 300.627151z"  horiz-adv-x="1024" />

    
    <glyph glyph-name="money-bag" unicode="&#59300;" d="M993.407 197.568c-110.656 240.512-297.088 423.488-330.944 455.552 21.184 37.312 93.504 165.056 99.072 176.96 6.528 14.144 17.024 46.208-21.12 53.312-38.208 6.976-63.424 15.488-84.544 11.648-21.248-3.84-52.928-27.776-134.272-31.104-79.744-3.2-92.352 30.912-134.72 29.952-27.52-0.64-83.392-4.288-98.816-9.664-15.552-5.568-41.472-23.488-17.152-60.352 19.712-29.632 73.216-128.384 93.376-165.76-6.656-5.888-229.376-205.632-350.72-499.392-28.736-69.504-8.64-161.984 31.68-210.048 72-85.696 164.032-76.352 173.312-76.352h602.816c20.16 0 128.128 11.392 176.128 96.064 27.52 48.512 44.032 124.352-4.096 229.184zM704 320v-64h-128v-64h128v-64l-128-0v-64h-128v64h-128v64h128v64l-128 0v64h128l-128 128 64 64 128-128 128 128 64-64-128-128h128z"  horiz-adv-x="1025" />

    
    <glyph glyph-name="dian1" unicode="&#58897;" d="M360.32 384c-0-70.692 57.308-128 128-128s128 57.308 128 128c0 70.692-57.308 128-128 128-70.692 0-128-57.308-128-128z"  horiz-adv-x="1024" />

    
    <glyph glyph-name="female" unicode="&#58932;" d="M579.18297947 660.85213822c-112.73035129 0-204.38069188-91.56831783-204.38069184-204.38500829 0-112.64832746 91.56831783-204.38500826 204.38069184-204.38500948 112.64832746 0 204.38500826 91.73668086 204.38500832 204.38500948 0 112.73035129-91.73668086 204.38500826-204.38500832 204.38500829zM789.62645599 891.42127728h-555.29120792c-126.85531905 0-229.73737688-102.84376188-229.73737688-229.7756728v-555.29120896c0-126.85531905 102.88205782-229.77567279 229.73737688-229.77567282h555.29120792c126.93191089 0 229.77567279 102.92035373 229.77567281 229.77567283v555.29120895c0 126.93191089-102.84759096 229.77567279-229.77567281 229.7756728z m-214.51856763-699.20354238c-63.72445314 0-122.06832623 23.26095718-167.24222321 61.63349503l-37.25046584-37.25046694 61.10884039-61.18543118-54.67512205-54.60235926L315.9400783 161.99840482000002l-70.83218073-70.90877259-54.75171387 54.67512099 70.83218072 70.8321807-64.70099958 64.77376241 54.75171284 54.60235818 64.62440775-64.70099957 41.13750517 41.06474241c-25.58169191 40.16478781-40.61285058 87.6632486-40.61285059 138.52409409 0 142.71367061 116.00990785 258.64698558 258.64698662 258.64698557s258.72357742-115.933316 258.72357744-258.64698557c-0.00383012-142.55665683-116.01373687-258.64315651-258.65081571-258.64315654z"  horiz-adv-x="1024" />

    
    <glyph glyph-name="male" unicode="&#58934;" d="M561.47160177 534.69013819c-112.82109249 0-204.67038093-91.8081756-204.67038098-204.58358921 0-112.86220533 91.84928841-204.67038093 204.67038098-204.6703809 112.86220533 0 204.62470069 91.8081756 204.62470067 204.6703809 0 112.86677272-91.76249535 204.58358783-204.62470067 204.58358921zM789.64560448 891.42127728h-555.29120896c-126.89361496 0-229.77567279-102.84376188-229.77567283-229.7756728v-555.29120896c0-126.85531905 102.88205782-229.77567279 229.77567283-229.77567283h555.29120896c126.89361496 0 229.77567279 102.92035373 229.77567283 229.77567284v555.29120895c0 126.93191089-102.88205782 229.77567279-229.77567284 229.7756728z m-225.69715491-815.73427468c-139.42404868 0-252.85280957 113.31770219-252.85280854 252.73792182 0 55.72443017 18.21355206 107.0371675 48.80435207 148.77208795L288.5814548 548.55384767v-92.15153329H207.39022046V692.46235201h236.9561621v-81.22953023H340.86307934l76.85230319-76.89059907c41.36345057 29.46873015 91.73793738 46.97380616 146.22923796 46.97380613 139.30916092 0 252.7379218-113.46705678 252.73792182-252.89110443 0.00383011-139.42021854-113.42493074-252.7379218-252.73409274-252.73792184z"  horiz-adv-x="1024" />

    
    <glyph glyph-name="home1" unicode="&#59078;" d="M916.16 535.506l-353.538 280.575c-32.683 23.992-78.269 22.919-109.698-2.581l-348.427-278.035c-19.798-16.064-31.225-39.73-31.225-64.668v-494.097c0-21.173 17.164-38.337 38.337-38.337h208.701c21.173 0 38.337 17.164 38.337 38.337v236.429c0 34.874 29.614 63.407 65.809 63.407h175.289c36.195 0 65.809-28.533 65.809-63.407v-236.429c0-21.173 17.164-38.337 38.337-38.337h208.499c21.173 0 38.337 17.164 38.337 38.337v491.558c0.001 26.385-12.784 51.258-34.567 67.248z"  horiz-adv-x="1024" />

    
    <glyph glyph-name="home-o" unicode="&#59080;" d="M509.452 769.375c3.779 0 9.316-0.779 14.614-4.402l354.222-281.059c5.364-3.938 8.441-9.645 8.441-15.657v-465.894h-157.174v210.766c0 70.253-58.232 127.408-129.809 127.408h-175.289c-71.577 0-129.809-57.155-129.809-127.408v-210.765h-157.376v468.434c0 5.569 2.702 10.978 7.42 14.863l348.557 278.14c4.43 3.595 10.184 5.574 16.203 5.574M509.452 833.375c-20.136 0-40.232-6.654-56.528-19.875l-348.427-278.035c-19.798-16.064-31.225-39.729-31.225-64.668v-494.097c0-21.173 17.164-38.337 38.337-38.337h208.701c21.173 0 38.337 17.164 38.337 38.337v236.429c0 34.874 29.614 63.408 65.809 63.408h175.289c36.195 0 65.809-28.533 65.809-63.408v-236.428c0-21.173 17.164-38.337 38.337-38.337h208.499c21.173 0 38.337 17.164 38.337 38.337v491.557c0 26.385-12.786 51.258-34.568 67.248l-353.537 280.575c-15.737 11.552-34.471 17.294-53.17 17.294z"  horiz-adv-x="1024" />

    
    <glyph glyph-name="post" unicode="&#59071;" d="M800-64H224c-52.928 0-96 43.072-96 96V672c0 52.928 43.072 96 96 96h448c17.696 0 32-14.336 32-32s-14.304-32-32-32H224c-17.632 0-32-14.368-32-32v-640c0-17.664 14.368-32 32-32h576c17.664 0 32 14.336 32 32V544c0 17.664 14.304 32 32 32s32-14.336 32-32v-512c0-52.928-43.072-96-96-96zM511.68 353.28c-8.256 0-16.512 3.168-22.752 9.504-12.416 12.576-12.32 32.832 0.256 45.248L907.488 821.76c12.608 12.448 32.832 12.288 45.248-0.256 12.448-12.576 12.32-32.832-0.256-45.248L534.176 362.528c-6.24-6.176-14.368-9.248-22.496-9.248z"  horiz-adv-x="1024" />

    
    <glyph glyph-name="nan" unicode="&#59110;" d="M512 389.33333333m-504 0a504 504 0 1 1 1008 0 504 504 0 1 1-1008 0ZM512 893.33333333c-277.2 0-504-226.8-504-504s226.8-504 504-504 504 226.8 504 504-226.8 504-504 504z m0-945c-245.7 0-441 195.3-441 441s195.3 441 441 441 441-195.3 441-441-195.3-441-441-441zM512 42.83333332999996c-119.7 0-220.5 100.8-220.5 220.5s100.8 220.5 220.5 220.5 220.5-100.8 220.5-220.5-100.8-220.5-220.5-220.5z m0 378c-88.2 0-157.5-69.3-157.5-157.5s69.3-157.5 157.5-157.5 157.5 69.3 157.5 157.5-69.3 157.5-157.5 157.5zM512 452.33333333c-18.9 0-31.5 12.6-31.5 31.5V704.33333333c0 18.9 12.6 31.5 31.5 31.5s31.5-12.6 31.5-31.5v-220.5c0-18.9-12.6-31.5-31.5-31.5zM669.5 546.83333333c-6.3 0-18.9 0-25.2 6.3l-132.3 132.3-132.3-132.3c-12.6-12.6-31.5-12.6-44.1 0s-12.6 31.5 0 44.1l151.2 151.2c6.3 6.3 18.9 12.6 31.5 12.6s25.2-6.3 31.5-12.6l151.2-151.2c12.6-12.6 12.6-31.5 0-44.1-12.6-6.3-25.2-6.3-31.5-6.3z"  horiz-adv-x="1024" />

    
    <glyph glyph-name="nv" unicode="&#59120;" d="M512 389.33333333m-504 0a504 504 0 1 1 1008 0 504 504 0 1 1-1008 0ZM512 893.33333333c-277.2 0-504-226.8-504-504s226.8-504 504-504 504 226.8 504 504-226.8 504-504 504z m0-945c-245.7 0-441 195.3-441 441s195.3 441 441 441 441-195.3 441-441-195.3-441-441-441zM512 294.83333332999996c-119.7 0-220.5 100.8-220.5 220.5s100.8 220.5 220.5 220.5 220.5-100.8 220.5-220.5-100.8-220.5-220.5-220.5z m0 378c-88.2 0-157.5-69.3-157.5-157.5s69.3-157.5 157.5-157.5 157.5 69.3 157.5 157.5-69.3 157.5-157.5 157.5zM512 11.33333332999996c-18.9 0-31.5 12.6-31.5 31.5V326.33333332999996c0 18.9 12.6 31.5 31.5 31.5s31.5-12.6 31.5-31.5v-283.5c0-18.9-12.6-31.5-31.5-31.5zM669.5 137.33333332999996h-315c-18.9 0-31.5 12.6-31.5 31.5s12.6 31.5 31.5 31.5h315c18.9 0 31.5-12.6 31.5-31.5s-12.6-31.5-31.5-31.5z"  horiz-adv-x="1024" />

    
    <glyph glyph-name="fanhui1" unicode="&#58944;" d="M532.526499-8.817574L139.506311 384.202615 532.526499 777.222803c12.258185 12.258185 12.432147 32.892131-0.187265 45.51052-12.707416 12.707416-32.995485 12.703323-45.511543 0.187265L75.166957 411.260877c-7.120165-7.120165-10.163477-17.065677-8.990768-26.624381-1.500167-9.755178 1.5104-20.010753 8.990768-27.491121l411.660734-411.660734c12.258185-12.258185 32.892131-12.432147 45.511543 0.187265 12.707416 12.707416 12.7023 32.995485 0.187265 45.51052z"  horiz-adv-x="1024" />

    
    <glyph glyph-name="gengduo" unicode="&#58945;" d="M492.675886-8.817574L885.696074 384.202615 492.675886 777.222803c-12.258185 12.258185-12.432147 32.892131 0.187265 45.51052 12.707416 12.707416 32.995485 12.703323 45.511543 0.187265l411.660734-411.660734c7.120165-7.120165 10.163477-17.065677 8.990768-26.624381 1.500167-9.755178-1.5104-20.010753-8.990768-27.491121L538.374694-54.515359c-12.258185-12.258185-32.892131-12.432147-45.511543 0.187265-12.707416 12.707416-12.703323 32.995485-0.187265 45.51052z"  horiz-adv-x="1024" />

    
    <glyph glyph-name="yonghu-xianxing" unicode="&#59592;" d="M512 703.2c70.4 0 128-57.6 128-128s-57.6-128-128-128c-36 0-68.8 14.4-93.6 40.8-24.8 26.4-36.8 60-34.4 96 4 63.2 56.8 115.2 120 118.4 2.4 0.8 4.8 0.8 8 0.8M512 256c53.6 0 140.8-13.6 216-43.2 64-25.6 104-57.6 104-84v-64.8H192v64.8c0 26.4 40 58.4 104 84 75.2 29.6 162.4 43.2 216 43.2m0 511.2h-11.2c-96-5.6-174.4-83.2-180.8-178.4-7.2-112 80.8-204.8 191.2-204.8 105.6 0 192 86.4 192 192S617.6 767.2 512 767.2zM512 320c-128 0-384-64-384-191.2v-96c0-17.6 14.4-32 32-32h704c17.6 0 32 14.4 32 32V129.60000000000002C896 256 640 320 512 320z"  horiz-adv-x="1024" />

    
    <glyph glyph-name="yonghu" unicode="&#59593;" d="M500 767.2c-95.2-5.6-173.6-83.2-180-178.4-7.2-112 80.8-205.6 191.2-205.6 106.4 0 192 86.4 192 192 0.8 110.4-92 198.4-203.2 192zM512 320.79999999999995c-128 0-383.2-64-383.2-192v-96c0-17.6 14.4-32 32-32h702.4c17.6 0 32 14.4 32 32V129.60000000000002c0 127.2-255.2 191.2-383.2 191.2z"  horiz-adv-x="1024" />

    
    <glyph glyph-name="zhinanzhidao-xianxing" unicode="&#59653;" d="M512 832C264.8 832 64 631.2 64 384s200.8-448 448-448 448 200.8 448 448S759.2 832 512 832z m0-832c-212 0-384 172-384 384s172 384 384 384 384-172 384-384-172-384-384-384zM256 128c7.2 7.2 356 156 356 156S760 632.8 767.2 640c7.2 7.2-356-155.2-356-155.2S252 128 256 128z m296 205.6c-26.4-11.2-160.8-72.8-165.6-75.2 13.6 29.6 56 137.6 70.4 170.4L552 333.6z"  horiz-adv-x="1024" />

    
    <glyph glyph-name="zhinanzhidao" unicode="&#59654;" d="M512 832C264.8 832 64 631.2 64 384s200.8-448 448-448 448 200.8 448 448S759.2 832 512 832z m256-192c-7.2-7.2-155.2-356-155.2-356S264 136 256.8 128.8c-4 0 156 356 156 356S775.2 647.2 768 640zM386.4 257.6c13.6 29.6 56 137.6 70.4 170.4L552 333.6c-26.4-12-160-73.6-165.6-76z"  horiz-adv-x="1024" />

    
    <glyph glyph-name="delete" unicode="&#59122;" d="M512 64c-176.448 0-320 143.552-320 320S335.552 704 512 704s320-143.552 320-320-143.552-320-320-320m0 704C300.256 768 128 595.744 128 384s172.256-384 384-384 384 172.256 384 384S723.744 768 512 768M649.824 534.624a31.968 31.968 0 0 1-45.248 0L505.6 435.648l-98.976 98.976a31.968 31.968 0 1 1-45.248-45.248l98.976-98.976-98.976-98.976a32 32 0 0 1 45.248-45.248l98.976 98.976 98.976-98.976a31.904 31.904 0 0 1 45.248 0 31.968 31.968 0 0 1 0 45.248L550.848 390.4l98.976 98.976a31.968 31.968 0 0 1 0 45.248"  horiz-adv-x="1024" />

    
    <glyph glyph-name="document" unicode="&#59123;" d="M224 64.064V703.904L223.808 704H576v-159.936c0-35.328 28.736-64.064 64.064-64.064h159.712c0.032-0.512 0.224-1.184 0.224-1.664L800.256 64 224 64.064zM757.664 544L640 544.064V671.872L757.664 544z m76.064 11.872l-163.872 178.08C651.712 753.664 619.264 768 592.672 768H223.808A64.032 64.032 0 0 1 160 703.904v-639.84A64 64 0 0 1 223.744 0h576.512A64 64 0 0 1 864 64.128V478.336c0 25.856-12.736 58.464-30.272 77.536zM640 384h-256a32 32 0 0 1 0-64h256a32 32 0 0 1 0 64M640 224h-256a32 32 0 0 1 0-64h256a32 32 0 0 1 0 64"  horiz-adv-x="1024" />

    
    <glyph glyph-name="manage_fill" unicode="&#59147;" d="M374.27473067 801.76044563L141.02482489 801.76044563A77.6722963 77.6722963 0 0 1 63.46903703 724.2046577799999l0-233.24990578a77.6722963 77.6722963 0 0 1 77.55578786-77.55578785l233.24990578 0A77.6722963 77.6722963 0 0 1 451.83051852 490.954752L451.83051852 724.2046577799999a77.6722963 77.6722963 0 0 1-77.55578785 77.55578785M943.45731792 662.45518222l-164.93712117 164.89828503a77.6722963 77.6722963 0 0 1-109.67328238 0L646.01125926 804.51781215 503.90979319 662.45518222a77.01208178 77.01208178 0 0 1-22.64147437-54.68129659 77.01208178 77.01208178 0 0 1 22.64147437-54.99198578l22.83565511-22.8356551L646.01125926 410.60276148l22.83565512-22.83565511a77.55578785 77.55578785 0 0 1 109.67328237 0.03883615l142.10146607 142.14030223 22.8356551 22.79681895a77.594624 77.594624 0 0 1 0 109.67328238M374.27473067 335.72666785L141.02482489 335.72666785A77.6722963 77.6722963 0 0 1 63.46903703 258.17088l0-233.24990578a77.6722963 77.6722963 0 0 1 77.55578786-77.55578785l233.24990578 0A77.6722963 77.6722963 0 0 1 451.83051852 24.920974219999948L451.83051852 258.17088a77.6722963 77.6722963 0 0 1-77.55578785 77.55578785M840.30850845 335.72666784l-233.24990578 0A77.6722963 77.6722963 0 0 1 529.50281482 258.17087999l1e-8-233.24990577a77.6722963 77.6722963 0 0 1 77.55578785-77.55578785l233.24990576 0A77.6722963 77.6722963 0 0 1 917.86429629 24.920974219999948L917.8642963 258.17087999a77.6722963 77.6722963 0 0 1-77.55578785 77.55578785"  horiz-adv-x="1024" />

    
    <glyph glyph-name="manage" unicode="&#59148;" d="M141.14133334 490.99358815V724.12698548l233.01688888 0.11650844 0.11650845-233.13339733L141.14133334 490.99358815z m233.13339733 310.80569363H141.02482489A77.6722963 77.6722963 0 0 1 63.46903703 724.2046577799999v-233.24990578a77.6722963 77.6722963 0 0 1 77.55578786-77.55578785h233.24990578A77.6722963 77.6722963 0 0 1 451.83051852 490.99358815V724.2046577799999a77.6722963 77.6722963 0 0 1-77.55578785 77.55578785zM141.14133334 24.959810370000014v233.13339733l233.01688888 0.11650845 0.11650845-233.13339733L141.14133334 24.959810370000014z m233.13339733 310.80569363H141.02482489A77.6722963 77.6722963 0 0 1 63.46903703 258.17088v-233.24990578a77.6722963 77.6722963 0 0 1 77.55578786-77.55578785h233.24990578A77.6722963 77.6722963 0 0 1 451.83051852 24.959810370000014V258.17088a77.6722963 77.6722963 0 0 1-77.55578785 77.55578785zM723.76122785 442.720256l-164.85944888 164.85944889 164.70410429 164.85944889 164.93712119-164.74294045-164.7817766-164.97595733z m219.69609007 219.69609008l-164.93712117 164.93712117a77.6722963 77.6722963 0 0 1-109.67328238 0L503.90979319 662.45518222a77.01208178 77.01208178 0 0 1-22.64147437-54.68129659 77.01208178 77.01208178 0 0 1 22.64147437-54.99198578l164.93712118-164.97595733a77.55578785 77.55578785 0 0 1 109.67328238 0.03883615l164.93712117 164.93712118a77.594624 77.594624 0 0 1 0 109.67328237zM607.17511111 24.959810370000014v233.13339733l233.01688889 0.11650845 0.11650845-233.13339733-233.13339732-0.11650845z m233.13339734 310.80569363h-233.24990578A77.6722963 77.6722963 0 0 1 529.50281482 258.17088v-233.24990578a77.6722963 77.6722963 0 0 1 77.55578785-77.55578785h233.24990578A77.6722963 77.6722963 0 0 1 917.8642963 24.959810370000014V258.17088a77.6722963 77.6722963 0 0 1-77.55578785 77.55578785z"  horiz-adv-x="1024" />

    
    <glyph glyph-name="offline" unicode="&#59154;" d="M512 64c-176.448 0-320 143.552-320 320S335.552 704 512 704s320-143.552 320-320-143.552-320-320-320m0 704C300.256 768 128 595.744 128 384s172.256-384 384-384 384 172.256 384 384S723.744 768 512 768M645.536 422.4h-256a32 32 0 0 1 0-64h256a32 32 0 0 1 0 64"  horiz-adv-x="1024" />

    
    <glyph glyph-name="order" unicode="&#59155;" d="M224 64.064V703.904L223.744 704 800 703.904 800.256 64 224 64.064zM800.256 768H223.744A64 64 0 0 1 160 703.904v-639.84A64 64 0 0 1 223.744 0h576.512A64 64 0 0 1 864 64.064V703.904A64 64 0 0 1 800.256 768zM640 480h-256a32 32 0 0 1 0-64h256a32 32 0 0 1 0 64M640 320h-256a32 32 0 0 1 0-64h256a32 32 0 0 1 0 64"  horiz-adv-x="1024" />

    
    <glyph glyph-name="people_fill" unicode="&#59157;" d="M878.18604089 249.98874074000003c-4.73801008 2.097152-71.07015111 31.06891852-156.93687467 55.574528a1072.38255882 1072.38255882 0 0 1-88.11922014 21.32104534c43.80717511 37.12735763 72.2740717 91.84749037 72.2740717 153.71347436v149.40266192A202.88003792 202.88003792 0 0 1 502.52397985 832.53096296c-111.84810667 0-202.91887408-90.68240592-202.91887407-202.5305126v-149.40266192c0-63.53593837 30.05917867-119.69300859 76.11885037-156.85920236-30.91357392-6.56330903-60.817408-14.44704711-88.35223704-22.68031053a1333.36147437 1333.36147437 0 0 1-140.35383941-50.56466489C111.5216403 236.24074429999996 84.80237037 196.35602014999995 84.80237037 157.75288888v-159.81074963l2.05831585-6.0584391c11.534336-33.90395733 42.64209067-56.66194015 77.43927941-56.66194015h695.40006874a79.53643141 79.53643141 0 0 1 78.83738074 69.1283437l0.66021452 153.40278518c0 38.33127822-26.64159763 78.13833008-61.01158874 92.23585186"  horiz-adv-x="1024" />

    
    <glyph glyph-name="people1" unicode="&#59158;" d="M861.52533333 15.777336890000015l-697.2253677-0.03883615A2.99038341 2.99038341 0 0 0 162.47466667 16.592895989999988v144.00443734c0 7.10701511 7.18468741 18.13648118 14.680064 21.16570074 1.28159289 0.54370608 84.23560533 36.73899615 181.98619022 61.24460562 50.05979497 12.54407585 103.92553245 22.0977683 152.85907911 22.0977683 44.46738963 0 93.12908325-7.88373808 139.34409955-18.75785955a1288.38921482 1288.38921482 0 0 0 196.43323734-64.97287585c6.44680059-2.64085808 13.74799645-13.7091603 13.74799644-20.77733926v-144.85883259zM377.27740208 632.84489481A125.16890548 125.16890548 0 0 0 502.4851437 757.70311111a125.20774163 125.20774163 0 0 0 125.24657778-124.8582163v-149.40266192a125.20774163 125.20774163 0 0 0-125.24657778-124.8582163 125.16890548 125.16890548 0 0 0-125.20774162 124.8582163v149.40266192zM878.18604089 252.83318519c-4.73801008 2.097152-71.07015111 31.06891852-156.93687467 55.53569184a1072.38255882 1072.38255882 0 0 1-88.11922014 21.35988149c43.80717511 37.12735763 72.2740717 91.84749037 72.2740717 153.71347437v149.40266192A202.88003792 202.88003792 0 0 1 502.52397985 835.37540741c-111.84810667 0-202.91887408-90.68240592-202.91887407-202.5305126v-149.40266192c0-63.53593837 30.05917867-119.69300859 76.11885037-156.89803853-30.91357392-6.52447289-60.817408-14.40821097-88.35223704-22.64147437a1333.36147437 1333.36147437 0 0 1-140.35383941-50.56466488C111.5216403 239.08518874000004 84.80237037 199.20046459000002 84.80237037 160.59733332999997v-159.81074964l2.05831585-6.0584391c11.534336-33.90395733 42.64209067-56.7007763 77.43927941-56.7007763h695.40006874a79.53643141 79.53643141 0 0 1 78.83738074 69.1283437l0.66021452 153.4027852c0 38.37011437-26.64159763 78.17716622-61.01158874 92.274688z"  horiz-adv-x="1024" />

    
    <glyph glyph-name="search" unicode="&#59201;" d="M163.63851852 444.16948148a310.68918518 310.68918518 0 1 0 621.37837036 0 310.68918518 310.68918518 0 0 0-621.37837036 0m766.74207288-439.93588623l-173.79176296 173.75292683A386.49734637 386.49734637 0 0 1 862.68918518 444.16948148c0 214.49204622-173.86943525 388.36148148-388.36148149 388.36148148S85.96622221 658.6615277 85.96622221 444.16948148s173.86943525-388.36148148 388.36148148-388.36148148a385.9536403 385.9536403 0 0 1 223.5020326 71.10898725l177.59770548-177.63654162c15.18493392-15.14609778 39.7682157-15.14609778 54.95314963 0 15.14609778 15.18493392 15.14609778 39.7682157 0 54.95314962"  horiz-adv-x="1024" />

    
    <glyph glyph-name="searchfill" unicode="&#59203;" d="M933.04725807 7.078039689999969l-173.79176296 173.75292683A386.49734637 386.49734637 0 0 1 865.35585184 447.01392592c0 214.49204622-173.86943525 388.36148148-388.36148148 388.36148149S88.63288888 661.50597214 88.63288888 447.01392592s173.86943525-388.36148148 388.36148148-388.36148148a385.9536403 385.9536403 0 0 1 223.5020326 71.10898725l177.59770548-177.63654162c15.18493392-15.14609778 39.7682157-15.14609778 54.95314963 0 15.14609778 15.18493392 15.14609778 39.7682157 0 54.95314962"  horiz-adv-x="1024" />

    
    <glyph glyph-name="wechat" unicode="&#58880;" d="M907.63140869 242.7789917c0 115.80963135-110.54443359 209.64385987-246.87103271 209.64385986-136.40075684 0-246.94519043-93.85894776-246.94519043-209.64385986S524.35961914 33.13513182999998 660.76037598 33.13513182999998c42.83843994 0 83.15551758 9.34387208 118.33099365 25.68328858l97.31964111-42.12158203-11.27197265 108.56689453c26.86981201 33.51928711 42.51708984 74.00939942 42.51708984 117.51525879zM577.53070068 299.58380127c-19.42932129 0-35.1260376 15.72143555-35.12603759 35.12603759s15.69671631 35.1260376 35.12603759 35.1260376c19.40460205 0 35.10131836-15.74615479 35.10131836-35.1260376s-15.74615479-35.1260376-35.10131836-35.12603759z m166.38519288 0c-19.35516357 0-35.10131836 15.72143555-35.10131837 35.12603759s15.74615479 35.1260376 35.10131836 35.1260376c19.45404052 0 35.17547607-15.74615479 35.17547608-35.1260376s-15.72143555-35.1260376-35.17547608-35.12603759zM660.76037598 480.18255615c38.14178467 0 74.47906494-6.79779052 107.57812499-19.03381347 0.24719239 4.42474365 0.76629638 8.67645263 0.7662964 13.12591552 0 153.01208497-146.11541748 277.02850342-326.31866456 277.02850342C262.63232422 751.30316162 116.51690674 627.3114624 116.51690674 474.2746582c0-57.54638672 20.71472168-111.0635376 56.16210938-155.3604126L157.79803467 175.49322510000002l128.5647583 55.69244384c31.83837891-14.83154297 67.03857422-24.84283448 104.19158935-29.9597168-2.79327393 13.52142334-4.49890137 27.36419677-4.49890136 41.55303956 0.02471924 130.8883667 123.25012208 237.37884521 274.70489501 237.37884522z m-107.99835205 161.91101075c25.6338501 0 46.34857177-20.76416016 46.34857177-46.34857179 0-25.6338501-20.71472168-46.39801026-46.34857177-46.39801024s-46.37329102 20.76416016-46.37329102 46.39801024c0 25.60913086 20.76416016 46.34857177 46.37329102 46.34857179zM332.8102417 549.3469848699999c-25.6338501 0-46.34857177 20.76416016-46.34857178 46.39801024 0 25.60913086 20.73944092 46.34857177 46.34857178 46.34857179 25.6338501 0 46.37329102-20.76416016 46.37329101-46.34857179s-20.76416016-46.39801026-46.37329101-46.39801024z"  horiz-adv-x="1025" />

    
    <glyph glyph-name="qqnew" unicode="&#58881;" d="M169.3293778 323.27127786999995c-28.63847505-70.11382127-33.57608961-136.27878671-10.86321611-148.12844489 15.80083065-8.88801532 41.47611869 10.86244363 65.1769792 46.413734 8.88724285-39.50091868 32.58810336-74.06422205 65.17620672-102.7026971-34.56330336-12.83841611-57.27617764-34.56330336-57.27617764-58.26416386 0-39.50091868 61.22580594-72.08902205 136.27878671-72.08902128 68.13862049 0 124.42758436 25.67528804 135.290028 60.23936387h15.80083064C529.77448647 14.175972770000044 586.06422205-11.499315260000003 654.20284332-11.499315260000003c76.0401953 0 136.27878671 31.6008896 136.27878593 72.08902128 0 23.70085974-22.71287349 45.42651947-57.27617686 58.26416386 32.58810336 28.63847505 56.2889631 63.20177843 65.17697919 102.7026971 23.70008725-35.55129038 48.38816153-55.30097686 65.17620595-46.413734 23.70085974 11.84965739 18.7632452 79.00183659-10.86244363 148.12844489-22.71364598 54.3137631-53.32654856 94.80266802-77.02740907 103.68991086 0 2.96318702 0.98798623 6.9135878 0.98798702 10.8632161 0 20.73767349-5.92482908 40.48813245-15.80083143 56.2889631v3.94962831c0 9.87522986-1.97442831 18.7632452-5.92482831 26.66327427C749.00628303 666.92988631 658.15324409 779.5078125 511.01278623 779.5078125 363.87155591 779.5078125 273.01928866 666.92988631 267.09368788 524.72627051c-3.94962831-7.90002907-5.92482908-16.78804518-5.92482909-26.66327428v-3.9496283c-9.87522986-15.80083065-15.80083065-35.55129038-15.80083064-56.28973558v-10.86244362c-21.72488726-8.88724285-53.32577608-48.38816153-76.03865035-103.68991086z"  horiz-adv-x="1024" />

    
    <glyph glyph-name="daohang" unicode="&#58939;" d="M913.6 760.8H380.2c-26.7 0-44.4-17.8-44.4-44.4V672c0-26.7 17.8-44.4 44.4-44.4h533.3c26.7 0 44.4 17.8 44.4 44.4v44.4c0.1 26.6-17.7 44.4-44.3 44.4zM158 760.8h-44.4c-22.2 0-44.4-22.2-44.4-44.4V672c0-22.2 22.2-44.4 44.4-44.4H158c22.2 0 44.4 22.2 44.4 44.4v44.4c0.1 22.2-22.1 44.4-44.4 44.4zM158 449.7h-44.4c-22.2 0-44.4-22.2-44.4-44.4v-44.4c0-22.2 22.2-44.4 44.4-44.4H158c22.2 0 44.4 22.2 44.4 44.4v44.4c0.1 22.2-22.1 44.4-44.4 44.4zM913.6 449.7H380.2c-26.7 0-44.4-17.8-44.4-44.4v-44.4c0-26.7 17.8-44.4 44.4-44.4h533.3c26.7 0 44.4 17.8 44.4 44.4v44.4c0.1 26.6-17.7 44.4-44.3 44.4zM158 138.6h-44.4c-22.2 0-44.4-22.2-44.4-44.4v-44.4c0-22.2 22.2-44.4 44.4-44.4H158c22.2 0 44.4 22.2 44.4 44.4v44.4c0.1 22.2-22.1 44.4-44.4 44.4zM913.6 138.6H380.2c-26.7 0-44.4-17.8-44.4-44.4v-44.4c0-26.7 17.8-44.4 44.4-44.4h533.3c26.7 0 44.4 17.8 44.4 44.4v44.4c0.1 26.6-17.7 44.4-44.3 44.4z"  horiz-adv-x="1024" />

    
    <glyph glyph-name="lianjie" unicode="&#58938;" d="M569.1392 269.9264a166.2464 166.2464 0 0 0-117.4016 49.0496 22.8352 22.8352 0 1 0 32.256 32.256 121.4976 121.4976 0 0 1 170.3424 0l163.84 163.84a120.4224 120.4224 0 0 1-170.3424 170.3424l-138.24-138.24a22.8352 22.8352 0 1 0-32.256 32.256l138.24 138.24a165.12 165.12 0 0 0 233.5232-233.5232l-163.84-163.84a159.5392 159.5392 0 0 0-116.1216-50.3808zM299.4688 0a165.7856 165.7856 0 0 0-117.4016 282.5728l163.84 163.84a165.12 165.12 0 0 0 233.5232 0 22.8352 22.8352 0 1 0-32.256-32.256 121.4976 121.4976 0 0 1-170.3424 0l-163.84-163.84a120.4224 120.4224 0 0 1 170.3424-170.3424l138.24 138.24a22.8352 22.8352 0 0 0 32.256-32.256l-138.24-138.24A169.7792 169.7792 0 0 0 299.4688 0zM299.4688-12.6464a173.5168 173.5168 0 0 0-126.464 52.8896 178.7392 178.7392 0 0 0-52.8896 126.464 173.5168 173.5168 0 0 0 52.8896 126.464l163.84 163.84a178.7392 178.7392 0 0 0 126.464 52.8896 173.568 173.568 0 0 0 126.464-52.8896 35.84 35.84 0 0 0 10.24-25.6 40.96 40.96 0 0 0-10.24-25.6 35.072 35.072 0 0 0-50.3296 0 109.056 109.056 0 0 1-152.2688 0l-163.84-163.84a106.2912 106.2912 0 0 1-30.72-76.1344 111.9232 111.9232 0 0 1 30.72-76.1344 106.2912 106.2912 0 0 1 76.1344-30.72 111.9232 111.9232 0 0 1 76.1344 30.72l138.24 138.24a35.584 35.584 0 0 0 50.3296-50.3296l-138.24-138.24a179.7632 179.7632 0 0 0-126.464-52.0192zM462.0288 481.28a145.2032 145.2032 0 0 1-107.1104-45.1584l-163.84-163.84a152.576 152.576 0 0 1-45.1584-107.1104 145.2544 145.2544 0 0 1 45.1584-107.1104 152.576 152.576 0 0 1 107.1104-45.1584 145.2032 145.2032 0 0 1 107.1104 45.1584l138.24 138.24a9.1136 9.1136 0 0 1-12.9024 12.9024l-138.24-138.24a133.12 133.12 0 0 0-188.416 188.6208l163.84 163.84a135.5264 135.5264 0 0 0 189.44 0 8.6016 8.6016 0 0 1 12.9024 0 9.3696 9.3696 0 0 1 0 12.9024A148.0704 148.0704 0 0 1 462.0288 481.28z m107.1104-224.512a173.5168 173.5168 0 0 0-126.464 52.8896 35.584 35.584 0 0 0 50.3296 50.3296 109.056 109.056 0 0 1 152.2688 0l163.84 163.84a106.2912 106.2912 0 0 1 30.72 76.1344 111.9232 111.9232 0 0 1-30.72 76.1344 106.2912 106.2912 0 0 1-76.1344 30.72 111.9232 111.9232 0 0 1-76.1344-30.72l-138.24-138.24A35.584 35.584 0 0 0 468.48 588.8l138.24 138.24a178.7392 178.7392 0 0 0 126.464 52.8896A173.568 173.568 0 0 0 859.648 727.04a179.2 179.2 0 0 0 0-252.8768l-163.84-163.84a178.7392 178.7392 0 0 0-126.464-52.8896z m-101.9392 86.6816a9.8816 9.8816 0 0 1-6.4512-2.56 8.6016 8.6016 0 0 1 0-12.9024 152.576 152.576 0 0 1 107.1104-45.1584 145.2032 145.2032 0 0 1 107.1104 45.1584l163.84 163.84A152.8832 152.8832 0 0 1 731.6992 752.64 145.2032 145.2032 0 0 1 624.64 707.328l-138.24-138.24a9.1136 9.1136 0 1 1 12.9024-12.9024l138.24 138.24a133.12 133.12 0 0 0 188.3648-188.3648l-163.84-163.84a135.5264 135.5264 0 0 0-189.44 0c0 1.28-2.56 1.28-5.12 1.28z"  horiz-adv-x="1024" />

    
    <glyph glyph-name="wode" unicode="&#58971;" d="M407.7 437.4c61.8-61.8 161.9-61.8 223.6 0 10.3 10.3 10.3 27 0 37.3-10.3 10.3-27 10.3-37.3 0-41.2-41.2-107.9-41.2-149.1 0-10.3 10.3-27 10.3-37.3 0-10.2-10.3-10.2-27 0.1-37.3zM512 834c-165.7 0-300-134.3-300-300s134.3-300 300-300 300 134.3 300 300S677.7 834 512 834z m0-510c-116 0-210 94-210 210s94 210 210 210 210-94 210-210-94-210-210-210zM827 204H197c-74.2 0-135-60.7-135-135 0-74.2 60.8-135 135-135h630c74.2 0 135 60.8 135 135 0 74.3-60.8 135-135 135z m0-180H197c-24.8 0-45 20.2-45 45s20.2 45 45 45h630c24.8 0 45-20.2 45-45s-20.2-45-45-45z"  horiz-adv-x="1024" />

    
    <glyph glyph-name="activity" unicode="&#59102;" d="M819.2 28.706133329999943c0-1.87733333-0.78506667-2.9696-0.1024-3.072l-612.9664-0.44373333C205.85813333 25.395200000000045 204.8 26.624000000000024 204.8 28.706133329999943v508.928h614.4v-508.928zM204.8 705.1946666700001c0 1.8432 0.68266667 2.93546667 0.1024 3.10613333H341.33333333V691.2a34.13333333 34.13333333 0 1 1 68.26666667 0v17.06666667h204.8V691.2a34.13333333 34.13333333 0 1 1 68.26666667 0v17.06666667h135.4752a5.05173333 5.05173333 0 0 0 1.05813333-3.072V605.86666667H204.8V705.1946666700001zM819.02933333 776.53333333H682.66666667V793.6a34.13333333 34.13333333 0 0 1-68.26666667 0v-17.06666667h-204.8V793.6a34.13333333 34.13333333 0 0 1-68.26666667 0v-17.06666667H204.4928C167.0144 776.53333333 136.53333333 744.51626667 136.53333333 705.1946666700001V28.672000000000025c0-39.35573333 30.5152-71.33866667 67.9936-71.33866667h614.94613334c37.4784 0 67.9936 31.98293333 67.9936 71.33866667V705.1946666700001c0 39.35573333-30.68586667 71.3728-68.43733334 71.3728zM375.46666667 332.79999999999995h273.06666666a34.13333333 34.13333333 0 0 1 0 68.26666667h-273.06666666a34.13333333 34.13333333 0 0 1 0-68.26666667M375.46666667 162.13333333000003h273.06666666a34.13333333 34.13333333 0 0 1 0 68.26666667h-273.06666666a34.13333333 34.13333333 0 0 1 0-68.26666667"  horiz-adv-x="1024" />

    
    <glyph glyph-name="activity_fill" unicode="&#59103;" d="M819.02933333 776.53333333H682.66666667V793.6a34.13333333 34.13333333 0 0 1-68.26666667 0v-17.06666667h-204.8V793.6a34.13333333 34.13333333 0 0 1-68.26666667 0v-17.06666667H204.4928C167.0144 776.53333333 136.53333333 744.51626667 136.53333333 705.16053333V605.86666667h750.93333334V705.16053333c0 39.35573333-30.68586667 71.3728-68.43733334 71.3728M648.53333333 401.06666667a34.13333333 34.13333333 0 0 0 0-68.26666667h-273.06666666a34.13333333 34.13333333 0 0 0 0 68.26666667h273.06666666z m-307.2-204.8a34.13333333 34.13333333 0 0 0 34.13333334 34.13333333h273.06666666a34.13333333 34.13333333 0 0 0 0-68.26666667h-273.06666666a34.13333333 34.13333333 0 0 0-34.13333334 34.13333334z m512 341.33333333H136.53333333v-508.928c0-39.3216 30.5152-71.33866667 67.9936-71.33866667h614.94613334c37.4784 0 67.9936 32.01706667 67.9936 71.33866667V537.6h-34.13333334z"  horiz-adv-x="1024" />

    
    <glyph glyph-name="addition_fill" unicode="&#59104;" d="M683.968 361.056H544v-139.968a32 32 0 0 0-64 0v139.968h-139.968a32 32 0 0 0 0 64H480v139.968a32 32 0 0 0 64 0v-139.968h139.968a32 32 0 0 0 0-64M512 768C300.256 768 128 595.712 128 384c0-211.744 172.256-384 384-384s384 172.256 384 384c0 211.712-172.256 384-384 384"  horiz-adv-x="1024" />

    
    <glyph glyph-name="addition" unicode="&#59105;" d="M512 64c-176.448 0-320 143.552-320 320S335.552 704 512 704s320-143.552 320-320-143.552-320-320-320m0 704C300.256 768 128 595.744 128 384s172.256-384 384-384 384 172.256 384 384S723.744 768 512 768M683.936 425.056H544v139.968a32 32 0 1 1-64 0v-139.968h-139.936a32 32 0 0 1 0-64H480v-139.968a32 32 0 0 1 64 0v139.968h139.968a32 32 0 0 1 0 64"  horiz-adv-x="1024" />

    
    <glyph glyph-name="browse_fill" unicode="&#59108;" d="M376.16 344.064v71.872a128.16 128.16 0 0 0 128 128.064c70.592 0 128-57.44 128-128.064v-71.872a128.16 128.16 0 0 0-128-128.064c-70.592 0-128 57.44-128 128.064m494.88 80.96c-2.048 4.704-26.72 59.936-78.88 116.928C733.696 605.856 640.576 672 504.16 672s-229.6-66.24-288-130.016c-52.096-56.864-76.608-111.68-78.208-115.488-12.736-24.896-13.056-60.896-2.016-82.816 0.48-1.248 24.32-60.96 80.224-121.44 57.984-62.72 150.464-126.24 288-126.24 137.504 0 230.08 63.68 288 126.208 55.872 60.32 79.52 119.616 79.552 119.776 11.744 24.896 10.88 61.664-0.672 83.008"  horiz-adv-x="1024" />

    
    <glyph glyph-name="browse" unicode="&#59109;" d="M812.896 367.104C812.16 365.056 730.816 160 504.16 160c-225.44 0-305.248 198.24-309.696 209.376-3.2 6.4-2.944 21.28 1.376 29.92C196.736 401.344 287.776 608 504.16 608c215.296 0 304.384-199.776 309.248-210.752 3.296-6.176 3.552-21.344-0.512-30.144m58.112 57.888C866.72 435.072 762.24 672 504.16 672 246.08 672 141.344 434.56 137.92 426.432c-12.704-24.896-13.056-60.896-1.984-82.752 0.96-2.496 98.048-247.68 368.224-247.68 270.144 0 367.552 245.696 367.552 246.016 11.712 24.832 10.912 61.6-0.704 82.976M568.16 344.032a64.064 64.064 0 0 0-64-64.032c-35.296 0-64 28.704-64 64.032v71.904c0 35.328 28.704 64.064 64 64.064s64-28.736 64-64.064v-71.904z m-64 199.968c-70.592 0-128-57.44-128-128.064v-71.904a128.16 128.16 0 0 1 128-128.032c70.592 0 128 57.44 128 128.032v71.904a128.16 128.16 0 0 1-128 128.064z"  horiz-adv-x="1024" />

    
    <glyph glyph-name="close" unicode="&#59113;" d="M544.448 396.8l284.576 284.576a32 32 0 0 1-45.248 45.248L499.2 442.048 214.624 726.624a32 32 0 0 1-45.248-45.248l284.576-284.576-284.576-284.576a32 32 0 0 1 45.248-45.248l284.576 284.576 284.576-284.576a31.904 31.904 0 0 1 45.248 0 32 32 0 0 1 0 45.248L544.448 396.8z"  horiz-adv-x="1024" />

    
    <glyph glyph-name="collection_fill" unicode="&#59114;" d="M877.632 439.2c14.976 14.72 20.384 32.96 14.816 49.984-5.536 17.024-20.608 28.544-41.344 31.584l-190.24 27.84c-6.976 1.024-18.464 9.472-21.6 15.904l-85.12 173.696c-9.28 18.944-24.896 29.76-42.88 29.76-17.952 0-33.6-10.816-42.816-29.76l-85.12-173.696c-3.104-6.432-14.592-14.848-21.6-15.904l-190.24-27.84c-20.704-3.04-35.776-14.56-41.344-31.584-5.568-17.024-0.16-35.232 14.816-49.984l137.696-135.232c5.088-4.992 9.536-18.816 8.32-25.92l-32.48-190.912c-3.552-20.832 2.752-38.816 17.344-49.344 7.52-5.44 16.224-8.16 25.472-8.16 8.576 0 17.6 2.336 26.56 7.04l170.176 90.176c6.048 3.2 20.448 3.2 26.528 0l170.144-90.112c18.528-9.856 37.504-9.44 52.064 1.056 14.56 10.528 20.864 28.48 17.344 49.28l-32.48 190.976c-1.28 7.104 3.2 20.928 8.32 25.92l137.664 135.232z"  horiz-adv-x="1024" />

    
    <glyph glyph-name="collection" unicode="&#59115;" d="M695.104 349.632c-20.16-19.808-31.328-54.4-26.56-82.368l26.976-158.56-140.992 74.688c-25.056 13.248-61.408 13.28-86.464 0l-140.992-74.656 27.008 158.56c4.736 27.904-6.464 62.528-26.56 82.336l-114.56 112.512 158.08 23.136c27.936 4.096 57.312 25.6 69.792 51.04l70.464 143.872 70.464-143.872c12.512-25.472 41.856-46.944 69.824-51.04l158.08-23.136-114.56-112.512z m182.528 89.536c14.976 14.72 20.384 32.96 14.816 50.016-5.536 17.024-20.64 28.512-41.344 31.552l-190.272 27.872c-6.944 1.024-18.432 9.472-21.6 15.872l-85.088 173.76c-9.248 18.88-24.896 29.76-42.88 29.76-17.92 0-33.568-10.88-42.848-29.76l-85.056-173.76c-3.136-6.4-14.656-14.848-21.632-15.872l-190.272-27.84c-20.704-3.072-35.744-14.56-41.28-31.584-5.6-17.024-0.192-35.264 14.784-50.016L282.624 304c5.12-5.024 9.6-18.848 8.352-25.92l-32.512-190.944c-3.52-20.8 2.784-38.816 17.344-49.344 7.52-5.44 16.256-8.16 25.472-8.16 8.576 0 17.632 2.368 26.56 7.104l170.176 90.144c6.08 3.2 20.48 3.2 26.56 0l170.144-90.144c18.496-9.824 37.504-9.408 52.032 1.056 14.56 10.56 20.896 28.512 17.376 49.312l-32.512 190.976c-1.216 7.072 3.232 20.896 8.32 25.92l137.696 135.2z"  horiz-adv-x="1024" />

    
    <glyph glyph-name="computer_fill" unicode="&#59116;" d="M221.216 308H160v-75.712c0-35.456 27.424-64.288 61.184-64.288h260.192v-52h-91.808c-16.896 0-30.624-14.336-30.624-32 0-17.696 13.728-32 30.624-32h244.864c16.896 0 30.624 14.304 30.624 32 0 17.664-13.728 32-30.624 32h-91.808V168h260.192c33.76 0 61.184 28.832 61.184 64.288v75.712H221.216zM802.816 736H221.184C187.424 736 160 707.136 160 671.68v-299.68h704V671.68C864 707.136 836.576 736 802.816 736"  horiz-adv-x="1024" />

    
    <glyph glyph-name="computer" unicode="&#59117;" d="M221.216 232.32v75.68h581.6v-76l-581.6 0.32zM802.784 671.68v-299.68H221.248V672l581.568-0.32z m0 64.32H221.216C187.424 736 160 707.136 160 671.68v-439.36c0-35.488 27.424-64.32 61.184-64.32h260.192v-52h-91.84c-16.864 0-30.592-14.336-30.592-32 0-17.696 13.728-32 30.624-32h244.864c16.896 0 30.624 14.304 30.624 32 0 17.664-13.728 32-30.624 32h-91.84V168h260.224c33.76 0 61.184 28.832 61.184 64.32V671.68C864 707.136 836.576 736 802.816 736z"  horiz-adv-x="1024" />

    
    <glyph glyph-name="createtask_fill" unicode="&#59118;" d="M716.62766459 539.34459259h-271.85303704a38.83614815 38.83614815 0 1 0 0 77.6722963h271.85303704a38.83614815 38.83614815 0 1 0 0-77.6722963m0-194.18074074h-271.85303704a38.83614815 38.83614815 0 1 0 0 77.6722963h271.85303704a38.83614815 38.83614815 0 1 0 0-77.6722963m0-194.18074074h-271.85303704a38.83614815 38.83614815 0 1 0 0 77.6722963h271.85303704a38.83614815 38.83614815 0 1 0 0-77.6722963m-398.84724148 388.36148148a38.83614815 38.83614815 0 1 0 0 77.6722963 38.83614815 38.83614815 0 0 0 0-77.6722963m0-194.18074074a38.8749843 38.8749843 0 0 0 0 77.6722963 38.83614815 38.83614815 0 0 0 0-77.6722963m0-194.18074074a38.8749843 38.8749843 0 0 0 0 77.6722963 38.83614815 38.83614815 0 0 0 0-77.6722963M861.36998875 811.1976296299999H162.08630518A77.40044325 77.40044325 0 0 1 84.80237037 733.83602252v-699.67204504C84.80237037-8.478113180000037 119.52188682-43.19762963000005 162.20281363-43.19762963000005h699.67204504a77.40044325 77.40044325 0 0 1 77.28393481 77.36160711V733.83602252A77.6722963 77.6722963 0 0 1 861.36998875 811.1976296299999"  horiz-adv-x="1024" />

    
    <glyph glyph-name="createtask" unicode="&#59119;" d="M550.83614815 34.319322080000006l-388.36148148-0.19418075-0.0776723 116.89680592-0.07767229 194.18074075-0.03883616 77.6722963-0.11650844 194.18074073-0.03883615 116.50844445h699.20601126L861.52533333 733.79718637 861.83602252 34.47466667000003 550.83614815 34.319322080000006zM861.33115259 811.1976296299999H162.12514133A77.43927941 77.43927941 0 0 1 84.80237037 733.83602252v-699.71088119c0-42.64209067 34.71951645-77.28393482 77.36160711-77.28393481h699.67204504A77.43927941 77.43927941 0 0 1 939.19762963 34.086305179999954V733.83602252A77.6722963 77.6722963 0 0 1 861.33115259 811.1976296299999zM716.62766459 617.01688889h-271.85303704a38.83614815 38.83614815 0 0 1 0-77.6722963h271.85303704a38.83614815 38.83614815 0 0 1 0 77.6722963M716.62766459 422.83614815h-271.85303704a38.83614815 38.83614815 0 0 1 0-77.6722963h271.85303704a38.83614815 38.83614815 0 0 1 0 77.6722963M716.62766459 228.65540740999995h-271.85303704a38.83614815 38.83614815 0 0 1 0-77.6722963h271.85303704a38.83614815 38.83614815 0 0 1 0 77.6722963M317.81925925 617.01688889a38.83614815 38.83614815 0 1 1 0-77.6722963 38.83614815 38.83614815 0 0 1 0 77.6722963M317.81925925 422.83614815a38.83614815 38.83614815 0 1 1 0-77.6722963 38.83614815 38.83614815 0 0 1 0 77.6722963M317.81925925 228.65540740999995a38.83614815 38.83614815 0 1 1 0-77.6722963 38.83614815 38.83614815 0 0 1 0 77.6722963"  horiz-adv-x="1024" />

    
    <glyph glyph-name="document_fill" unicode="&#59125;" d="M833.728 555.872l-163.904 178.144c-7.744 8.448-18.4 15.552-29.824 21.28v-211.2l202.4-0.064c-2.752 4.192-5.536 8.448-8.64 11.84M640 320h-256a32 32 0 1 0 0 64h256a32 32 0 1 0 0-64m0-160h-256a32 32 0 1 0 0 64h256a32 32 0 1 0 0-64m223.808 320h-223.744A64.128 64.128 0 0 0 576 544.128V768H223.808A64 64 0 0 1 160 703.936v-639.84A64 64 0 0 1 223.744 0h576.512A64 64 0 0 1 864 64.16V478.368c0 0.544-0.16 1.12-0.192 1.664"  horiz-adv-x="1024" />

    
    <glyph glyph-name="dynamic_fill" unicode="&#59124;" d="M798.39232 411.23384889l-158.63352889-158.63352889a36.29966222 36.29966222 0 0 0-51.48216889 0l-116.43562667 116.43562667-152.69888-151.16970667a36.33607111 36.33607111 0 0 0-51.48216888 0.29127111 36.40888889 36.40888889 0 0 0 0.25486222 51.48216889l178.43996444 176.65592889a36.40888889 36.40888889 0 0 0 51.37294222-0.14563556l116.28999112-116.3264 132.89244444 132.89244445a36.37248 36.37248 0 1 0 51.48216889-51.48216889M839.97127111 784.49777778H184.02872889A72.59932445 72.59932445 0 0 1 111.50222222 711.97127111v-655.94254222C111.50222222 16.015359999999987 144.01536-16.49777777999998 184.02872889-16.49777777999998h655.94254222A72.59932445 72.59932445 0 0 1 912.49777778 56.028728890000025V711.97127111A72.63573333 72.63573333 0 0 1 839.97127111 784.49777778"  horiz-adv-x="1024" />

    
    <glyph glyph-name="dynamic" unicode="&#59128;" d="M184.32 56.028728890000025V711.6800000000001l655.36 0.32768 0.29127111-655.72408889L184.32 56.065137779999986zM839.97127111 784.49777778H184.02872889A72.59932445 72.59932445 0 0 1 111.50222222 712.0076799999999v-655.97895111C111.50222222 16.05176888999995 144.05176889-16.49777777999998 184.02872889-16.49777777999998h655.94254222A72.63573333 72.63573333 0 0 1 912.49777778 56.028728890000025V712.0076799999999a72.59932445 72.59932445 0 0 1-72.52650667 72.45368889zM746.91015111 462.71601778l-132.89244444-132.85603556-116.25358222 116.28999111a36.40888889 36.40888889 0 0 1-51.37294223 0.14563556l-178.43996444-176.58311111a36.44529778 36.44529778 0 0 1 51.22730667-51.80984889l152.69888 151.13329778 116.43562666-116.43562667a37.50115555 37.50115555 0 0 1 51.48216889 0l158.59712 158.63352889a36.37248 36.37248 0 1 1-51.48216889 51.48216889"  horiz-adv-x="1024" />

    
    <glyph glyph-name="emoji_fill" unicode="&#59126;" d="M712.32 272a224.8 224.8 0 0 0-193.984-112 224.928 224.928 0 0 0-194.048 111.936 32 32 0 1 0 55.392 32.064 160.736 160.736 0 0 1 138.656-80 160.608 160.608 0 0 1 138.592 80 32 32 0 0 0 55.392-32zM352 512a32 32 0 1 0 64 0v-96a32 32 0 1 0-64 0v96z m256 0a32 32 0 1 0 64 0v-96a32 32 0 1 0-64 0v96z m-96 256C300.256 768 128 595.68 128 384c0-211.744 172.256-384 384-384 211.712 0 384 172.256 384 384 0 211.712-172.288 384-384 384z"  horiz-adv-x="1024" />

    
    <glyph glyph-name="emoji" unicode="&#59127;" d="M512 64c-176.448 0-320 143.552-320 320S335.552 704 512 704s320-143.552 320-320-143.552-320-320-320m0 704C300.256 768 128 595.744 128 384s172.256-384 384-384 384 172.256 384 384S723.744 768 512 768M700.64 315.712a32 32 0 0 1-43.712-11.68A160.608 160.608 0 0 0 518.304 224a160.576 160.576 0 0 0-138.592 80 32 32 0 0 1-55.424-32.032 224.896 224.896 0 0 1 194.016-112 224.768 224.768 0 0 1 194.016 112 32 32 0 0 1-11.68 43.744M384 384a32 32 0 0 1 32 32v96a32 32 0 0 1-64 0v-96a32 32 0 0 1 32-32M640 384a32 32 0 0 1 32 32v96a32 32 0 0 1-64 0v-96a32 32 0 0 1 32-32"  horiz-adv-x="1024" />

    
    <glyph glyph-name="flag_fill" unicode="&#59131;" d="M826.42716445 348.31928889000005l-126.48448 174.43498666 126.48448 174.50780445c13.83537778 19.11466667 16.52963555 40.48668445 7.28177777 58.65472C824.46108445 774.04842667 805.52846222 784.49777778 781.78986667 784.49777778H257.21059555A72.78136889 72.78136889 0 0 1 184.32 711.93486222V-16.49777777999998a36.40888889 36.40888889 0 0 1 72.81777778 0v277.58136889h524.65208889c23.88423111 0 42.88967111 10.44935111 52.13752888 28.54456889 9.17504 18.0224 6.48078222 39.43082667-7.5002311 58.69112889"  horiz-adv-x="1024" />

    
    <glyph glyph-name="flag" unicode="&#59132;" d="M257.13777778 333.64650667V712.0076799999999l489.77237333-0.36408889-136.93383111-188.81649778 136.97024-188.88931555L257.13777778 333.64650667z m569.28938667 14.70919111l-126.48448 174.47139555 126.48448 174.47139556c13.87178667 19.15107555 16.52963555 40.55950222 7.24536888 58.69112889-9.24785778 18.13162667-28.14407111 28.50816-51.84625778 28.50816H257.21059555A72.78136889 72.78136889 0 0 1 184.32 712.0076799999999V-16.49777777999998a36.40888889 36.40888889 0 0 1 72.81777778 0v277.61777778H781.82627555c23.84782222 0 42.85326222 10.37653333 52.06471112 28.47175111 9.21144889 18.05880889 6.51719111 39.50364445-7.46382222 58.76394667z"  horiz-adv-x="1024" />

    
    <glyph glyph-name="interactive_fill" unicode="&#59140;" d="M690.91555556 493.22666667a54.61333333 54.61333333 0 0 0-0.07281778 109.22666666h0.14563556a54.61333333 54.61333333 0 0 0-0.07281778-109.22666666m-182.04444444 0a54.61333333 54.61333333 0 0 0-0.07281778 109.22666666h0.14563555a54.61333333 54.61333333 0 0 0-0.07281777-109.22666666m412.8403911 291.27111111h-0.03640888c-9.72117333 21.48124445-30.54705778 36.40888889-54.79537778 36.40888889H332.90695112c-24.24832 0-45.11061333-14.92764445-54.79537778-36.40888889a64.29809778 64.29809778 0 0 1-5.89824-26.46926223V602.4533333300001H90.16888889h60.69361778C117.40273778 602.4533333300001 90.16888889 574.2000355499999 90.16888889 539.46595555v-429.11516444c0-34.77048889 27.30666667-62.98737778 60.80284445-62.98737778H220.47630222c1.56558222-0.07281778 3.96856889-1.09226667 6.15310223-2.43939555l0.29127111-52.17393778c0-3.16757333 0.72817778-6.18951111 1.56558222-9.24785778a35.89916445 35.89916445 0 0 1 5.97105778-12.74311111c11.57802667-15.03687111 28.39893333-23.66577778 46.27569778-23.66577778h0.07281778c16.82090667 0 32.69518222 7.64586667 44.16398222 21.00792889l16.20195555 15.40096 51.04526223 48.56945778c2.25735111 2.11171555 5.42492445 6.62641778 7.06332444 9.24785778a18.0224 18.0224 0 0 0 10.30371556 6.00746667h275.28760888c17.40344889 0 33.09568 7.68227555 44.20039112 19.91566222l-0.40049778 0.40049778h0.61895111l-32.95004445 31.0931911-22.28224 21.40842667h-0.40049778l-90.84017777 85.77934223H345.03111112c-130.88995555 1.12867555-134.27598222 108.06158222-134.27598223 108.06158222V562.40355555c0.14563555 1.23790222 0.76458667 2.36657778 0.76458667 3.67729778 0 1.31072-0.61895111 2.40298667-0.76458667 3.67729778v0.29127111h-0.03640889A36.0448 36.0448 0 0 1 175.11082667 602.4533333300001H272.21333334v-273.75843555c0-6.11669333 1.12867555-11.90570667 2.73066666-17.47626667 7.39100445-26.17799111 30.43783111-45.43829333 57.92654222-45.43829333h275.2876089a18.0224 18.0224 0 0 0 10.26730666-5.93464889 36.15402667 36.15402667 0 0 1 7.09973334-9.32067556l67.28362666-63.97041778c11.43239111-13.36206222 27.37948445-21.00792889 44.16398222-21.00792888 2.91271111 0 5.71619555 0.58254222 8.55608889 1.01944888a58.9824 58.9824 0 0 1 37.75601778 22.6463289c4.84238222 6.29873778 7.50023111 14.01742222 7.57304889 21.99096888l0.29127111 52.17393778a15.03687111 15.03687111 0 0 0 6.08028445 2.40298667h69.54097777c27.59793778 0 50.68117333 19.29671111 58.10858667 45.40188444a64.07964445 64.07964445 0 0 1 2.69425778 17.62190223V757.91928889c0 9.53912889-2.18453333 18.49571555-5.86183112 26.61489778"  horiz-adv-x="1024" />

    
    <glyph glyph-name="interactive" unicode="&#59141;" d="M709.12 146.72327111000004c-16.71168 0-30.83832889-11.28675555-35.09816888-26.57848889h-264.4741689c-27.19744 0-55.92405333-15.98350222-70.99733333-38.70264889l-39.13955555-37.13706666-0.07281778 14.30869333a36.95502222 36.95502222 0 0 1-4.18702222 16.78449778c-13.68974222 25.88672-45.03779555 44.71011555-74.63822222 44.71011555H162.98666667V529.6355555499999h12.12416a36.40888889 36.40888889 0 1 1 0 72.81777778h-24.24832C117.40273778 602.4533333300001 90.16888889 574.16362667 90.16888889 539.39313778v-429.07875556c0-34.77048889 27.30666667-62.98737778 60.83925333-62.98737777h69.46816a16.09272889 16.09272889 0 0 0 6.11669334-2.43939556l0.32768-52.17393778a36.33607111 36.33607111 0 0 1 7.53664-21.99096889c11.54161778-15.03687111 28.43534222-23.66577778 46.31210666-23.62936889h0.0364089c16.78449778 0 32.73159111 7.64586667 44.16398222 21.00792889l67.24721778 63.93400889c2.22094222 2.11171555 5.42492445 6.62641778 7.02691555 9.24785778a18.16803555 18.16803555 0 0 0 10.30371555 6.00746666h275.32401778a60.43875555 60.43875555 0 0 1 53.81233778 33.93308445 36.0448 36.0448 0 0 1 6.84487111 21.26279111v7.82791111a36.40888889 36.40888889 0 0 1-36.40888889 36.40888889M854.75555556 338.56170667000004h-57.52604444c-18.24085333 0-36.66375111-7.68227555-51.70062223-19.22389334-3.45884445-2.65784889-7.09973333-5.06083555-10.12167111-8.15559111a78.20629333 78.20629333 0 0 1-12.81592889-17.33063111 36.70016 36.70016 0 0 1-4.18702222-16.74808889l-0.07281778-14.38151111-39.13955555 37.17347556c-2.73066667 4.11420445-6.29873778 7.68227555-9.8304 11.28675555-15.98350222 16.384-38.88469333 27.37948445-61.16693334 27.37948445H345.03111112V748.08888889h509.72444444v-409.52718222zM921.71150222 784.49777778c-9.72117333 21.44483555-30.54705778 36.40888889-54.83178666 36.40888889H332.90695112c-24.28472889 0-45.11061333-14.96405333-54.83178667-36.40888889a64.80782222 64.80782222 0 0 1-5.86183111-26.61489778v-429.11516445c0-6.15310222 1.12867555-11.97852445 2.69425778-17.58549333 7.39100445-26.17799111 30.43783111-45.43829333 57.9629511-45.43829333h275.2876089a18.16803555 18.16803555 0 0 0 10.26730666-5.89824 35.71712 35.71712 0 0 1 7.09973334-9.35708444l67.24721777-63.9340089c11.43239111-13.39847111 27.37948445-21.00792889 44.16398223-21.00792888h0.03640888c17.87676445 0 34.77048889 8.59249778 46.31210667 23.62936888a36.33607111 36.33607111 0 0 1 7.53664 21.9909689l0.32768 52.21034666a15.43736889 15.43736889 0 0 0 6.08028445 2.36657778h69.50456888c27.59793778 0 50.71758222 19.26030222 58.10858667 45.43829333 1.60199111 5.60696889 2.73066667 11.43239111 2.73066667 17.58549333V757.88288A64.80782222 64.80782222 0 0 1 921.71150222 784.49777778zM508.87111112 602.4533333300001a54.61333333 54.61333333 0 1 1 0.03640888-109.26307555 54.61333333 54.61333333 0 0 1-0.03640888 109.22666667M690.91555556 602.4533333300001a54.61333333 54.61333333 0 1 1 0.03640889-109.26307555 54.61333333 54.61333333 0 0 1-0.03640889 109.22666667"  horiz-adv-x="1024" />

    
    <glyph glyph-name="like_fill" unicode="&#59144;" d="M682.66666667 725.33333333a237.568 237.568 0 0 1-170.66666667-72.192A237.43146667 237.43146667 0 0 1 341.33333333 725.33333333c-131.75466667 0-238.93333333-107.9296-238.93333333-240.64 0-55.73973333 19.3536-110.08 56.45653333-155.2384l305.01546667-313.58293333a66.69653333 66.69653333 0 0 1 96.22186667 0l306.9952 315.76746667A242.2784 242.2784 0 0 1 921.6 484.69333333C921.6 617.40373333 814.42133333 725.33333333 682.66666667 725.33333333"  horiz-adv-x="1024" />

    
    <glyph glyph-name="like" unicode="&#59153;" d="M816.19626667 377.07093333l-303.34293334-313.61706666-303.104 311.46666666A173.60213333 173.60213333 0 0 0 170.66666667 484.69333333C170.66666667 579.7205333300001 247.26186667 657.06666667 341.33333333 657.06666667a169.984 169.984 0 0 0 142.16533334-76.97066667L512 536.91733333l28.50133333 43.17866667A170.12053333 170.12053333 0 0 0 682.66666667 657.06666667c94.1056 0 170.66666667-77.34613333 170.66666666-172.37333334 0-40.0384-13.85813333-79.01866667-37.13706666-107.6224M682.66666667 725.33333333a237.568 237.568 0 0 1-170.66666667-72.22613333A237.4656 237.4656 0 0 1 341.33333333 725.33333333c-131.75466667 0-238.93333333-107.96373333-238.93333333-240.64 0-55.77386667 19.38773333-110.11413333 56.49066667-155.2384l305.01546666-313.58293333a66.56 66.56 0 0 1 48.09386667-20.44586667c18.26133333 0 35.328 7.2704 48.128 20.41173334l306.92693333 315.8016A241.93706667 241.93706667 0 0 1 921.6 484.69333333C921.6 617.3696 814.42133333 725.33333333 682.66666667 725.33333333"  horiz-adv-x="1024" />

    
    <glyph glyph-name="message" unicode="&#59149;" d="M800 192v-17.888h-184.128c-29.664 0-61.184-18.848-74.912-44.832L512 74.56l-28.96 54.752c-13.728 25.952-45.248 44.8-74.912 44.8H224V640h576v-448z m5.312 512H218.688C186.336 704 160 676.512 160 642.752v-471.392c0-33.76 26.4-61.248 58.816-61.248h189.312c5.92 0 15.712-5.728 18.368-10.752l38.048-71.968 2.912-4.544c11.168-14.528 27.392-22.848 44.544-22.848 17.152 0 33.376 8.32 44.544 22.848l40.96 76.512c2.464 4.608 11.968 10.752 18.368 10.752h189.472c32.352 0 58.656 27.488 58.656 61.248V642.752C864 676.512 837.664 704 805.312 704zM336 448c-12.352 0-23.488-4.8-32-12.448A47.68 47.68 0 0 1 288 400c0-14.176 6.24-26.752 16-35.552a47.68 47.68 0 0 1 32-12.448 48 48 0 0 1 0 96M688 448a48 48 0 0 1 0-96c12.352 0 23.488 4.8 32 12.448 9.76 8.8 16 21.376 16 35.552a47.68 47.68 0 0 1-16 35.552 47.68 47.68 0 0 1-32 12.448M512 448c-12.352 0-23.488-4.8-32-12.448a47.68 47.68 0 0 1-16-35.552c0-14.176 6.24-26.752 16-35.552A47.68 47.68 0 0 1 512 352c12.352 0 23.488 4.8 32 12.448 9.76 8.8 16 21.376 16 35.552a47.68 47.68 0 0 1-16 35.552A47.68 47.68 0 0 1 512 448"  horiz-adv-x="1024" />

    
    <glyph glyph-name="message_fill" unicode="&#59150;" d="M688 352a48 48 0 1 0 0 96 48 48 0 0 0 0-96M512 352a48 48 0 1 0 0 96 48 48 0 0 0 0-96m-176 0a48 48 0 1 0-0.032 95.968A48 48 0 0 0 336 352M805.312 704H218.688C186.336 704 160 676.512 160 642.752v-471.392c0-33.792 26.4-61.248 58.816-61.248h189.344c5.888 0 15.648-5.728 18.304-10.752l38.08-71.968 2.912-4.544c11.136-14.496 27.36-22.816 44.48-22.848h0.032c17.152 0 33.376 8.32 44.576 22.816l40.992 76.544c2.432 4.576 11.936 10.752 18.336 10.752h189.504c32.32 0 58.624 27.456 58.624 61.248V642.752C864 676.512 837.664 704 805.312 704"  horiz-adv-x="1024" />

    
    <glyph glyph-name="more" unicode="&#59152;" d="M288 439.136A63.264 63.264 0 0 1 256 448a64 64 0 1 1 0-128c11.712 0 22.56 3.392 32 8.896 19.04 11.072 32 31.488 32 55.104 0 23.648-12.96 44.064-32 55.136M544 439.136A63.264 63.264 0 0 1 512 448c-11.712 0-22.56-3.36-32-8.864-19.04-11.072-32-31.488-32-55.136 0-23.616 12.96-44.032 32-55.104 9.44-5.504 20.288-8.896 32-8.896s22.56 3.392 32 8.896c19.04 11.072 32 31.488 32 55.104 0 23.648-12.96 44.064-32 55.136M768 448c-11.712 0-22.56-3.392-32-8.864-19.04-11.104-32-31.52-32-55.136 0-23.616 12.96-44.032 32-55.136 9.44-5.472 20.288-8.864 32-8.864a64 64 0 1 1 0 128"  horiz-adv-x="1024" />

    
    <glyph glyph-name="order_fill" unicode="&#59156;" d="M640 416.032h-256a32 32 0 0 0 0 64h256a32 32 0 0 0 0-64m0-160h-256a32 32 0 0 0 0 64h256a32 32 0 0 0 0-64M800.256 768H223.744A64 64 0 0 1 160 703.936v-639.84A64 64 0 0 1 223.744 0h576.512A64 64 0 0 1 864 64.096V703.936A64 64 0 0 1 800.256 768"  horiz-adv-x="1024" />

    
    <glyph glyph-name="picture_fill" unicode="&#59159;" d="M839.60718222 145.08487111V56.32000000000005l-463.81283555-0.18204445 0.07281778 0.0364089-102.96433778-0.0364089 1.09226666 1.09226667 378.25194667 361.75872 187.39655111-170.93973333v-102.96433778zM402.77333333 602.4533333300001c60.25671111 0 109.22666667-49.00636445 109.22666667-109.22666666s-48.96995555-109.22666667-109.22666667-109.22666667c-60.22030222 0-109.22666667 49.00636445-109.22666666 109.22666667s49.00636445 109.22666667 109.22666666 109.22666666zM840.04408889 784.49777778H184.02872889A72.56291555 72.56291555 0 0 1 111.50222222 711.97127111v-655.94254222C111.50222222 16.05176888999995 144.01536-16.49777777999998 184.02872889-16.49777777999998H840.04408889A72.63573333 72.63573333 0 0 1 912.49777778 56.028728890000025V711.97127111A72.59932445 72.59932445 0 0 1 840.04408889 784.49777778z"  horiz-adv-x="1024" />

    
    <glyph glyph-name="picture" unicode="&#59160;" d="M375.83075555 56.10154666999995l276.37987556 276.41628444 187.72423111-187.72423111 0.03640889-88.4736-464.17692444-0.21845333zM184.32 711.6800000000001l655.36 0.29127111 0.21845333-464.17692444-161.94673778 161.94673778a36.37248 36.37248 0 0 1-51.48216888 0L272.7936 56.065137779999986H184.32V711.6800000000001z m655.65127111 72.81777778H183.99232a72.59932445 72.59932445 0 0 1-72.45368889-72.52650667v-655.94254222C111.50222222 16.015359999999987 143.97895111-16.49777777999998 183.95591111-16.49777777999998h655.97895111A72.59932445 72.59932445 0 0 1 912.49777778 56.028728890000025V711.97127111A72.63573333 72.63573333 0 0 1 839.97127111 784.49777778zM402.77333333 529.6355555499999a36.0448 36.0448 0 0 0 36.40888889-36.40888888 36.0448 36.0448 0 0 0-36.40888889-36.40888889 36.0448 36.0448 0 0 0-36.40888888 36.40888889c0 20.42538667 15.98350222 36.40888889 36.40888888 36.40888888m0-145.63555555c60.22030222 0 109.22666667 49.00636445 109.22666667 109.22666667s-49.00636445 109.22666667-109.22666667 109.22666666-109.22666667-49.00636445-109.22666666-109.22666666 49.00636445-109.22666667 109.22666666-109.22666667"  horiz-adv-x="1024" />

    
    <glyph glyph-name="praise_fill" unicode="&#59162;" d="M866.272 513.664c-15.584 19.296-39.872 30.336-66.592 30.336h-164.992c23.168 67.232 5.376 145.024 4.352 149.312a30.944 30.944 0 0 1-4.928 10.656A95.808 95.808 0 0 1 544 768a95.84 95.84 0 0 1-95.456-90.72H448V656a111.328 111.328 0 0 0-37.984-83.392c-16-14.208-35.904-23.776-58.016-26.976V32h384.16c32.352 0 63.04 24.96 69.888 56.8l75.904 354.208c5.504 25.76-0.192 51.488-15.68 70.656M192.192 544C156.8 544 128 515.2 128 479.776v-383.552C128 60.832 156.64 32 191.84 32H288V544H192.192z"  horiz-adv-x="1024" />

    
    <glyph glyph-name="praise" unicode="&#59163;" d="M819.36 456.416l-75.904-354.176c-0.576-2.688-5.088-6.24-7.296-6.24L352 96.16V480h2.88v1.056A176.224 176.224 0 0 1 512 656V672a32.032 32.032 0 0 0 64 0h2.048c6.336-32.8 11.968-106.496-23.872-139.904A32 32 0 0 1 576 476.672c4.64 0 9.152 1.344 13.44 3.328h210.24c7.424 0 13.376-2.336 16.832-6.592 3.296-4.096 4.32-10.144 2.848-16.992zM192.192 480H288v-383.808H192L192.192 480z m674.08 33.664c-15.584 19.296-39.872 30.336-66.592 30.336h-164.992c23.168 67.2 5.376 145.024 4.352 149.312a30.944 30.944 0 0 1-4.928 10.656 95.808 95.808 0 0 1-90.112 64 95.84 95.84 0 0 1-95.456-90.688H448V656c0-61.76-50.24-112-112-112H192.192C156.8 544 128 515.2 128 479.776v-383.552C128 60.8 156.64 32 191.84 32h544.32c32.352 0 63.04 24.96 69.888 56.8l75.904 354.208c5.504 25.76-0.192 51.488-15.68 70.656z"  horiz-adv-x="1024" />

    
    <glyph glyph-name="send" unicode="&#59174;" d="M832 320a32 32 0 0 1-32-32l0.256-192L224 95.744 223.744 672H416a32 32 0 0 1 0 64H223.744A63.84 63.84 0 0 1 160 672.256v-576.512C160 60.608 188.608 32 223.744 32h576.512A63.84 63.84 0 0 1 864 95.744V288a32 32 0 0 1-32 32M800.544 736H640a32 32 0 0 1 0-64l114.944 0.192-265.6-265.568a32 32 0 0 1 45.28-45.248l265.664 265.632v-115.264a32 32 0 1 1 64 0V672.256A63.84 63.84 0 0 1 800.544 736"  horiz-adv-x="1024" />

    
    <glyph glyph-name="share_fill" unicode="&#59177;" d="M736 288a127.776 127.776 0 0 1-115.232-73.28l-204.896 117.056a30.848 30.848 0 0 1-9.696 3.2A127.68 127.68 0 0 1 416 384c0 6.656-0.992 13.088-1.984 19.456 0.608 0.32 1.28 0.416 1.856 0.768l219.616 125.472A127.328 127.328 0 0 1 736 480c70.592 0 128 57.408 128 128s-57.408 128-128 128-128-57.408-128-128c0-6.72 0.992-13.152 1.984-19.616-0.608-0.288-1.28-0.256-1.856-0.608l-219.616-125.472A127.328 127.328 0 0 1 288 512c-70.592 0-128-57.408-128-128s57.408-128 128-128a126.912 126.912 0 0 1 84.544 32.64 31.232 31.232 0 0 1 11.584-12.416l224-128c0.352-0.224 0.736-0.256 1.12-0.448C615.488 83.008 669.6 32 736 32c70.592 0 128 57.408 128 128s-57.408 128-128 128"  horiz-adv-x="1024" />

    
    <glyph glyph-name="share" unicode="&#59178;" d="M736 96c-35.296 0-64 28.704-64 64s28.704 64 64 64 64-28.704 64-64-28.704-64-64-64M288 320c-35.296 0-64 28.704-64 64s28.704 64 64 64 64-28.704 64-64-28.704-64-64-64M736 672c35.296 0 64-28.704 64-64s-28.704-64-64-64-64 28.704-64 64 28.704 64 64 64m0-384a127.776 127.776 0 0 1-115.232-73.28l-204.896 117.056a30.848 30.848 0 0 1-9.696 3.2A127.68 127.68 0 0 1 416 384c0 6.656-0.992 13.088-1.984 19.456 0.608 0.32 1.28 0.416 1.856 0.768l219.616 125.472A127.328 127.328 0 0 1 736 480c70.592 0 128 57.408 128 128s-57.408 128-128 128-128-57.408-128-128c0-6.72 0.992-13.152 1.984-19.616-0.608-0.288-1.28-0.256-1.856-0.608l-219.616-125.472A127.328 127.328 0 0 1 288 512c-70.592 0-128-57.408-128-128s57.408-128 128-128a126.912 126.912 0 0 1 84.544 32.64 31.232 31.232 0 0 1 11.584-12.416l224-128c0.352-0.224 0.736-0.256 1.12-0.448C615.488 83.008 669.6 32 736 32c70.592 0 128 57.408 128 128s-57.408 128-128 128"  horiz-adv-x="1024" />

    
    <glyph glyph-name="switch" unicode="&#59182;" d="M512 576c23.616 0 44.032 12.96 55.136 32 5.472 9.44 8.864 20.288 8.864 32a64 64 0 1 1-128 0c0-11.712 3.392-22.56 8.864-32 11.104-19.04 31.52-32 55.136-32M512 448c-23.616 0-44.032-12.96-55.136-32A63.584 63.584 0 0 1 448 384c0-11.712 3.392-22.56 8.864-32 11.104-19.04 31.52-32 55.136-32 23.616 0 44.032 12.96 55.136 32 5.472 9.44 8.864 20.288 8.864 32s-3.392 22.56-8.864 32c-11.104 19.04-31.52 32-55.136 32M512 192c-23.616 0-44.032-12.96-55.136-32A63.584 63.584 0 0 1 448 128a64 64 0 1 1 128 0c0 11.712-3.392 22.56-8.864 32-11.104 19.04-31.52 32-55.136 32"  horiz-adv-x="1024" />

    
    <glyph glyph-name="systemprompt_fill" unicode="&#59183;" d="M746.912 586.144a30.4 30.4 0 0 1-42.112-9.312 31.424 31.424 0 0 1 8.896-42.976c1.088-0.736 10.4-7.264 22.304-20.32 24.256-26.624 59.52-80.736 59.52-171.36 0-94.112-36.32-148.992-59.52-174.464-10.176-11.2-17.888-16.768-18.784-17.408a31.36 31.36 0 0 1-8.512-43.168c5.888-8.96 15.616-13.824 25.536-13.824 0.576 0 1.184 0.224 1.76 0.256a30.464 30.464 0 0 1 15.2 4.96c4.32 2.912 105.632 73.376 105.632 243.68 0 170.592-105.408 241.024-109.92 243.936M651.488 494.784a30.304 30.304 0 0 1-40.416-14.624 31.552 31.552 0 0 1 13.984-41.504c1.92-1.024 47.872-25.216 47.872-94.208 0-73.664-42.944-98.08-44.352-98.88a31.328 31.328 0 0 1-13.76-41.76 30.656 30.656 0 0 1 41.184-13.952c3.168 1.664 78.208 41.056 78.208 154.592 0 109.568-79.36 148.704-82.72 150.336M550.016 700.608a43.84 43.84 0 0 1-10.176 2.88c-10.176 1.6-25.056 0.256-40.992-14.272l-34.624-31.456-16.224-14.752-101.632-92.384H223.712a63.936 63.936 0 0 1-63.712-64v-205.504c0-35.264 28.608-64 63.712-64h85.632L448 91.072l50.848-46.208c12.864-11.648 25.024-14.912 34.592-14.912 2.4 0 4.352 0.416 6.4 0.768a44.48 44.48 0 0 1 10.272 2.688c7.808 3.456 25.888 14.784 25.888 45.408V655.328c0 0.864-0.256 1.6-0.288 2.432-0.736 19.936-10.08 35.904-25.696 42.848"  horiz-adv-x="1024" />

    
    </font>
</defs>
</svg>
